<?xml version="1.0" encoding="UTF-8"?>
<svg viewBox="0 0 1120 822" xmlns="http://www.w3.org/2000/svg"
     style="width:100%;height:auto;font-family:'Inter',system-ui,sans-serif;">
  <defs>
    <pattern id="grid" width="40" height="40" patternUnits="userSpaceOnUse">
      <path d="M 40 0 L 0 0 0 40" fill="none" stroke="#1e293b" stroke-width="0.5"/>
    </pattern>
    <marker id="arr" markerWidth="10" markerHeight="7" refX="9" refY="3.5" orient="auto">
      <polygon points="0 0,10 3.5,0 7" fill="#475569"/>
    </marker>
    <marker id="arr-orange" markerWidth="10" markerHeight="7" refX="9" refY="3.5" orient="auto">
      <polygon points="0 0,10 3.5,0 7" fill="#fb923c"/>
    </marker>
  </defs>

  <rect width="1120" height="822" fill="#020617"/>
  <rect width="1120" height="822" fill="url(#grid)"/>

  <!-- INGESTION LAYER — outer dashed boundary -->
  <rect x="12" y="118" width="1096" height="430" rx="8"
        fill="rgba(30,41,59,0.08)" stroke="#94a3b8" stroke-width="1" stroke-dasharray="6,3"/>
  <text x="20" y="115" fill="#94a3b8" font-size="9" font-weight="600" letter-spacing="0.5">INGESTION LAYER</text>

  <!-- ════ ARROWS (drawn first, behind all boxes) ════ -->

  <!-- ORCHESTRATION → PARSER -->
  <line x1="122" y1="104" x2="122" y2="138" stroke="#475569" stroke-width="1.5" marker-end="url(#arr)"/>
  <line x1="340" y1="104" x2="340" y2="138" stroke="#475569" stroke-width="1.5" marker-end="url(#arr)"/>
  <line x1="558" y1="104" x2="558" y2="138" stroke="#475569" stroke-width="1.5" marker-end="url(#arr)"/>
  <line x1="776" y1="104" x2="776" y2="138" stroke="#475569" stroke-width="1.5" marker-end="url(#arr)"/>
  <line x1="994" y1="104" x2="994" y2="138" stroke="#475569" stroke-width="1.5" marker-end="url(#arr)"/>

  <!-- PARSER → NAVIGATION -->
  <line x1="122" y1="192" x2="122" y2="214" stroke="#475569" stroke-width="1.5" marker-end="url(#arr)"/>
  <line x1="340" y1="192" x2="340" y2="214" stroke="#475569" stroke-width="1.5" marker-end="url(#arr)"/>
  <line x1="558" y1="192" x2="558" y2="214" stroke="#475569" stroke-width="1.5" marker-end="url(#arr)"/>
  <line x1="776" y1="192" x2="776" y2="214" stroke="#475569" stroke-width="1.5" marker-end="url(#arr)"/>
  <line x1="994" y1="192" x2="994" y2="214" stroke="#475569" stroke-width="1.5" marker-end="url(#arr)"/>

  <!-- [P] FILESYSTEM → CRYPTO → VOLUME → CONTAINER → archive -->
  <line x1="122" y1="274" x2="122" y2="296" stroke="#475569" stroke-width="1.5" marker-end="url(#arr)"/>
  <line x1="122" y1="342" x2="122" y2="364" stroke="#475569" stroke-width="1.5" marker-end="url(#arr)"/>
  <line x1="122" y1="410" x2="122" y2="432" stroke="#475569" stroke-width="1.5" marker-end="url(#arr)"/>
  <line x1="122" y1="486" x2="122" y2="506" stroke="#475569" stroke-width="1.5" marker-end="url(#arr)"/>

  <!-- [M] PAGING → (no fs) → CONTAINER → HISTORY (memory is not resolved through the VFS stack) -->
  <line x1="340" y1="274" x2="340" y2="296" stroke="#475569" stroke-width="1.2" stroke-dasharray="5,3" marker-end="url(#arr)"/>
  <line x1="340" y1="410" x2="340" y2="432" stroke="#475569" stroke-width="1.5" marker-end="url(#arr)"/>
  <line x1="340" y1="486" x2="340" y2="564" stroke="#475569" stroke-width="1.5" marker-end="url(#arr)"/>

  <!-- [L][Q][C] NAVIGATION → no-container -->
  <line x1="558" y1="274" x2="558" y2="296" stroke="#475569" stroke-width="1.5" marker-end="url(#arr)"/>
  <line x1="776" y1="274" x2="776" y2="296" stroke="#475569" stroke-width="1.5" marker-end="url(#arr)"/>
  <line x1="994" y1="274" x2="994" y2="296" stroke="#475569" stroke-width="1.5" marker-end="url(#arr)"/>

  <!-- [L][Q][C] no-container → HISTORY -->
  <line x1="558" y1="344" x2="558" y2="564" stroke="#475569" stroke-width="1.2" stroke-dasharray="5,3" marker-end="url(#arr)"/>
  <line x1="776" y1="344" x2="776" y2="564" stroke="#475569" stroke-width="1.2" stroke-dasharray="5,3" marker-end="url(#arr)"/>
  <line x1="994" y1="344" x2="994" y2="564" stroke="#475569" stroke-width="1.2" stroke-dasharray="5,3" marker-end="url(#arr)"/>

  <!-- [P] archive → HISTORY -->
  <line x1="122" y1="552" x2="122" y2="564" stroke="#475569" stroke-width="1.5" marker-end="url(#arr)"/>

  <!-- HISTORY → KNOWLEDGE -->
  <line x1="560" y1="678" x2="560" y2="696" stroke="#fb923c" stroke-width="2" marker-end="url(#arr-orange)"/>

  <!-- ════ ORCHESTRATION ════ -->

  <rect x="12" y="12" width="1096" height="92" rx="8" fill="#0f172a"/>
  <rect x="12" y="12" width="1096" height="92" rx="8"
        fill="rgba(136,19,55,0.15)" stroke="#fb7185" stroke-width="1.5" stroke-dasharray="6,3"/>
  <text x="20" y="9" fill="#fb7185" font-size="9" font-weight="600" letter-spacing="0.5">ORCHESTRATION LAYER</text>

  <rect x="18" y="16" width="1090" height="40" rx="6" fill="#0f172a"/>
  <rect x="18" y="16" width="1090" height="40" rx="6"
        fill="rgba(136,19,55,0.3)" stroke="#fb7185" stroke-width="1.5"/>
  <text x="563" y="35" fill="white"   font-size="18" font-weight="700" text-anchor="middle">Issen</text>
  <text x="563" y="50" fill="#fb7185" font-size="9" text-anchor="middle">issen-core · issen-correlation · forensic-pivot · issen-cli · issen-{artifact} wrappers</text>

  <rect x="18" y="60" width="1090" height="40" rx="6" fill="#0f172a"/>
  <rect x="18" y="60" width="1090" height="40" rx="6"
        fill="rgba(6,78,59,0.4)" stroke="#34d399" stroke-width="1.5"/>
  <text x="563" y="77" fill="white"   font-size="11" font-weight="600" text-anchor="middle">forensic-vfs-engine — one open-any-image entry (ORCHESTRATION wiring)</text>
  <text x="563" y="92" fill="#34d399" font-size="9" text-anchor="middle">Vfs::open(path) → Evidence · default_registry() wires ~15 readers · consumed by issen · 4n6mount · disk4n6</text>

  <!-- ════ COLUMN LABELS ════ -->

  <text x="122" y="131" fill="#fbbf24" font-size="10" font-weight="600" text-anchor="middle">[P] Persistent</text>
  <text x="340" y="131" fill="#fbbf24" font-size="10" font-weight="600" text-anchor="middle">[M] Memory</text>
  <text x="558" y="131" fill="#fbbf24" font-size="10" font-weight="600" text-anchor="middle">[L] Log</text>
  <text x="776" y="131" fill="#fbbf24" font-size="10" font-weight="600" text-anchor="middle">[Q] Live Query</text>
  <text x="994" y="131" fill="#fbbf24" font-size="10" font-weight="600" text-anchor="middle">[C] Content-Addr</text>

  <!-- ════ PARSER ROW  y=140, h=52 ════ -->

  <rect x="18"  y="140" width="208" height="52" rx="6" fill="#0f172a"/>
  <rect x="18"  y="140" width="208" height="52" rx="6" fill="rgba(76,29,149,0.4)" stroke="#a78bfa" stroke-width="1.5"/>
  <text x="122" y="159" fill="white"   font-size="11" font-weight="600" text-anchor="middle">PARSER</text>
  <text x="122" y="177" fill="#a78bfa" font-size="9"  text-anchor="middle">browser · srum · mft-forensic</text>

  <rect x="236" y="140" width="208" height="52" rx="6" fill="#0f172a"/>
  <rect x="236" y="140" width="208" height="52" rx="6" fill="rgba(76,29,149,0.4)" stroke="#a78bfa" stroke-width="1.5"/>
  <text x="340" y="159" fill="white"   font-size="11" font-weight="600" text-anchor="middle">OS STRUCTURE</text>
  <text x="340" y="177" fill="#a78bfa" font-size="9"  text-anchor="middle">memf-windows · memf-linux</text>

  <rect x="454" y="140" width="208" height="52" rx="6" fill="#0f172a"/>
  <rect x="454" y="140" width="208" height="52" rx="6" fill="rgba(76,29,149,0.4)" stroke="#a78bfa" stroke-width="1.5"/>
  <text x="558" y="159" fill="white"   font-size="11" font-weight="600" text-anchor="middle">PARSER</text>
  <text x="558" y="177" fill="#a78bfa" font-size="9"  text-anchor="middle">winevt-forensic</text>

  <rect x="672" y="140" width="208" height="52" rx="6" fill="#0f172a"/>
  <rect x="672" y="140" width="208" height="52" rx="6" fill="rgba(76,29,149,0.4)" stroke="#a78bfa" stroke-width="1.5"/>
  <text x="776" y="159" fill="white"   font-size="11" font-weight="600" text-anchor="middle">PARSER</text>
  <text x="776" y="177" fill="#a78bfa" font-size="9"  text-anchor="middle">velociraptor-parser</text>

  <rect x="890" y="140" width="208" height="52" rx="6" fill="#0f172a"/>
  <rect x="890" y="140" width="208" height="52" rx="6" fill="rgba(76,29,149,0.4)" stroke="#a78bfa" stroke-width="1.5"/>
  <text x="994" y="159" fill="white"   font-size="11" font-weight="600" text-anchor="middle">PARSER</text>
  <text x="994" y="177" fill="#a78bfa" font-size="9"  text-anchor="middle">git-forensic · sigstore-forensic</text>

  <!-- ════ NAVIGATION ROW  y=216, h=58 ════ -->

  <rect x="18"  y="216" width="208" height="58" rx="6" fill="#0f172a"/>
  <rect x="18"  y="216" width="208" height="58" rx="6" fill="rgba(6,78,59,0.4)" stroke="#34d399" stroke-width="1.5"/>
  <text x="122" y="235" fill="white"   font-size="11" font-weight="600" text-anchor="middle">FILESYSTEM</text>
  <text x="122" y="252" fill="#34d399" font-size="9"  text-anchor="middle">ntfs · ext4fs · apfs · hfs+</text>
  <text x="122" y="267" fill="#64748b" font-size="8"  text-anchor="middle">name → inode → block</text>

  <rect x="236" y="216" width="208" height="58" rx="6" fill="#0f172a"/>
  <rect x="236" y="216" width="208" height="58" rx="6" fill="rgba(6,78,59,0.4)" stroke="#34d399" stroke-width="1.5"/>
  <text x="340" y="235" fill="white"   font-size="11" font-weight="600" text-anchor="middle">PAGING</text>
  <text x="340" y="252" fill="#34d399" font-size="9"  text-anchor="middle">memf-hw</text>
  <text x="340" y="267" fill="#64748b" font-size="8"  text-anchor="middle">PID → EPROCESS → VA → PA</text>

  <rect x="454" y="216" width="208" height="58" rx="6" fill="#0f172a"/>
  <rect x="454" y="216" width="208" height="58" rx="6" fill="rgba(251,146,60,0.3)" stroke="#fb923c" stroke-width="1.5"/>
  <text x="558" y="235" fill="white"   font-size="11" font-weight="600" text-anchor="middle">LOG FORMAT</text>
  <text x="558" y="252" fill="#fb923c" font-size="9"  text-anchor="middle">winevt-forensic</text>
  <text x="558" y="267" fill="#64748b" font-size="8"  text-anchor="middle">timestamp → record → field</text>

  <rect x="672" y="216" width="208" height="58" rx="6" fill="#0f172a"/>
  <rect x="672" y="216" width="208" height="58" rx="6" fill="rgba(8,51,68,0.4)" stroke="#22d3ee" stroke-width="1.5"/>
  <text x="776" y="235" fill="white"   font-size="11" font-weight="600" text-anchor="middle">QUERY ENGINE</text>
  <text x="776" y="252" fill="#22d3ee" font-size="9"  text-anchor="middle">issen-remote-access</text>
  <text x="776" y="267" fill="#64748b" font-size="8"  text-anchor="middle">(endpoint, query) → rows</text>

  <rect x="890" y="216" width="208" height="58" rx="6" fill="#0f172a"/>
  <rect x="890" y="216" width="208" height="58" rx="6" fill="rgba(8,51,68,0.4)" stroke="#22d3ee" stroke-width="1.5"/>
  <text x="994" y="235" fill="white"   font-size="11" font-weight="600" text-anchor="middle">GRAPH NAV</text>
  <text x="994" y="252" fill="#22d3ee" font-size="9"  text-anchor="middle">cas · git-forensic</text>
  <text x="994" y="267" fill="#64748b" font-size="8"  text-anchor="middle">hash → blob → content graph</text>

  <!-- ════ [P] CRYPTO ROW  y=298, h=44 ════ -->

  <rect x="18" y="298" width="208" height="44" rx="6" fill="#0f172a"/>
  <rect x="18" y="298" width="208" height="44" rx="6" fill="rgba(136,19,55,0.4)" stroke="#fb7185" stroke-width="1.5"/>
  <text x="122" y="317" fill="white"   font-size="11" font-weight="600" text-anchor="middle">CRYPTO</text>
  <text x="122" y="333" fill="#fb7185" font-size="8"  text-anchor="middle">BitLocker · LUKS · FileVault · VeraCrypt</text>

  <!-- ════ [P] VOLUME ROW  y=366, h=44 ════ -->

  <rect x="18" y="366" width="208" height="44" rx="6" fill="#0f172a"/>
  <rect x="18" y="366" width="208" height="44" rx="6" fill="rgba(30,41,59,0.5)" stroke="#94a3b8" stroke-width="1.5"/>
  <text x="122" y="385" fill="white"   font-size="11" font-weight="600" text-anchor="middle">VOLUME</text>
  <text x="122" y="401" fill="#94a3b8" font-size="8"  text-anchor="middle">MBR · GPT · APM · VSS</text>

  <!-- ════ [M] no-fs pass-through note  y=298, h=112 ════ -->

  <rect x="236" y="298" width="208" height="112" rx="6"
        fill="rgba(30,41,59,0.08)" stroke="#334155" stroke-width="1" stroke-dasharray="5,3"/>
  <text x="340" y="346" fill="#475569" font-size="9" font-style="italic" text-anchor="middle">no volume / crypto / fs</text>
  <text x="340" y="362" fill="#334155" font-size="8" text-anchor="middle">memory pages map</text>
  <text x="340" y="375" fill="#334155" font-size="8" text-anchor="middle">directly to PA</text>

  <!-- ════ [L][Q][C] no outer container  y=298, h=46 ════ -->

  <rect x="454" y="298" width="644" height="46" rx="6"
        fill="rgba(30,41,59,0.08)" stroke="#334155" stroke-width="1" stroke-dasharray="5,3"/>
  <text x="776" y="319" fill="#475569" font-size="10" font-style="italic" text-anchor="middle">no outer container</text>
  <text x="776" y="335" fill="#334155" font-size="8"  text-anchor="middle">[L] [Q] [C] — LOG FORMAT / QUERY ENGINE / GRAPH NAV are the entry points</text>

  <!-- ════ CONTAINER ROW  y=434, h=52 ([P] [M]) ════ -->

  <rect x="18"  y="434" width="208" height="52" rx="6" fill="#0f172a"/>
  <rect x="18"  y="434" width="208" height="52" rx="6" fill="rgba(30,41,59,0.5)" stroke="#94a3b8" stroke-width="1.5"/>
  <text x="122" y="453" fill="white"   font-size="11" font-weight="600" text-anchor="middle">CONTAINER</text>
  <text x="122" y="468" fill="#94a3b8" font-size="8"  text-anchor="middle">ewf · vmdk · qcow2 · vhdx · vhd</text>
  <text x="122" y="479" fill="#94a3b8" font-size="8"  text-anchor="middle">aff4 · dd · dmg · iso</text>

  <rect x="236" y="434" width="208" height="52" rx="6" fill="#0f172a"/>
  <rect x="236" y="434" width="208" height="52" rx="6" fill="rgba(30,41,59,0.5)" stroke="#94a3b8" stroke-width="1.5"/>
  <text x="340" y="457" fill="white"   font-size="11" font-weight="600" text-anchor="middle">CONTAINER</text>
  <text x="340" y="473" fill="#94a3b8" font-size="9"  text-anchor="middle">memf-format</text>

  <!-- ════ archive-detour  y=508, h=44 ([P] — outermost layer OF the forensic-vfs resolve stack) ════ -->

  <rect x="18" y="508" width="208" height="44" rx="6" fill="#0f172a"/>
  <rect x="18" y="508" width="208" height="44" rx="6" fill="rgba(251,146,60,0.12)" stroke="#fb923c" stroke-width="1.5"/>
  <text x="122" y="521" fill="white"   font-size="9" font-weight="600" text-anchor="middle">archive-detour · archive-core</text>
  <text x="122" y="533" fill="#fb923c" font-size="8"  text-anchor="middle">.gz·.zip·.7z·.tar·.bz2 · Detect→AccessPlan→Peel</text>
  <text x="122" y="544" fill="#94a3b8" font-size="7"  text-anchor="middle">resolves as ContainerDecoder / FileSystemProbe · zran</text>

  <!-- ════ forensic-vfs unifier (halo around [P] fs→crypto→volume→container→archive) ════ -->

  <rect x="14" y="210" width="218" height="346" rx="8"
        fill="none" stroke="#34d399" stroke-width="1.5" stroke-dasharray="8,4"/>
  <text x="30" y="383" fill="#34d399" font-size="9" font-weight="600" letter-spacing="0.5"
        text-anchor="middle" transform="rotate(-90 30 383)">forensic-vfs · one ImageSource · read-only</text>

  <!-- ════ HISTORY LAYER  y=566, h=112 ════ -->

  <rect x="12" y="566" width="1096" height="112" rx="8" fill="#0f172a"/>
  <rect x="12" y="566" width="1096" height="112" rx="8"
        fill="rgba(251,146,60,0.1)" stroke="#fb923c" stroke-width="1.5" stroke-dasharray="6,3"/>
  <text x="20" y="564" fill="#fb923c" font-size="9" font-weight="600" letter-spacing="0.5">HISTORY LAYER</text>

  <rect x="18" y="576" width="1090" height="90" rx="6" fill="#0f172a"/>
  <rect x="18" y="576" width="1090" height="90" rx="6"
        fill="rgba(120,53,15,0.25)" stroke="#fbbf24" stroke-width="1.5"/>
  <text x="563" y="592" fill="white"   font-size="11" font-weight="600" text-anchor="middle">state-history-forensic</text>
  <text x="563" y="608" fill="#fbbf24" font-size="9"  text-anchor="middle">HistoricalSource · TemporalCohort&lt;H&gt; · ClockProvenance · ArtifactRef · EpochTag · MaterializationSafety</text>
  <text x="563" y="624" fill="#94a3b8" font-size="9"  text-anchor="middle">[P^H]  ·  [M^H]  ·  [L^H]  ·  [Q^H]  ·  [C^H] ≅ [C]</text>
  <text x="563" y="639" fill="#64748b" font-size="8"  text-anchor="middle">[H] cross-cutting functor — a time-indexed lift of each primitive</text>

  <!-- ════ KNOWLEDGE LAYER  y=698, h=64 ════ -->

  <rect x="12" y="698" width="1096" height="64" rx="8" fill="#0f172a"/>
  <rect x="12" y="698" width="1096" height="64" rx="8"
        fill="rgba(120,53,15,0.3)" stroke="#fbbf24" stroke-width="1.5"/>
  <text x="20" y="696" fill="#fbbf24" font-size="9" font-weight="600" letter-spacing="0.5">KNOWLEDGE LAYER</text>

  <rect x="18" y="704" width="716" height="52" rx="6" fill="#0f172a"/>
  <rect x="18" y="704" width="716" height="52" rx="6" fill="rgba(120,53,15,0.15)" stroke="#fbbf24" stroke-width="1.5"/>
  <text x="376" y="724" fill="white"   font-size="12" font-weight="600" text-anchor="middle">forensicnomicon  ·  jsonguard</text>
  <text x="376" y="740" fill="#fbbf24" font-size="9"  text-anchor="middle">magic bytes · format offsets · ESE / EVTX / NTFS field schemas (zero-dep, zero-I/O)</text>
  <text x="376" y="752" fill="#94a3b8" font-size="8"  text-anchor="middle">jsonguard: RFC-4180 / formula-injection output guard</text>

  <rect x="742" y="704" width="366" height="52" rx="6" fill="#0f172a"/>
  <rect x="742" y="704" width="366" height="52" rx="6" fill="rgba(6,78,59,0.4)" stroke="#34d399" stroke-width="1.5"/>
  <text x="925" y="722" fill="white"   font-size="10" font-weight="600" text-anchor="middle">forensic-vfs — contract leaf · 0.3</text>
  <text x="925" y="736" fill="#34d399" font-size="8"  text-anchor="middle">ImageSource · VolumeSystem · CryptoLayer · FileSystem</text>
  <text x="925" y="749" fill="#94a3b8" font-size="8"  text-anchor="middle">FsKind · PathSpec · FsMeta · Registry::resolve</text>

  <!-- ════ LEGEND ════ -->

  <line x1="12" y1="776" x2="1108" y2="776" stroke="#1e293b" stroke-width="1"/>

  <rect x="12"  y="786" width="11" height="11" rx="2" fill="rgba(136,19,55,0.4)"  stroke="#fb7185"  stroke-width="1"/>
  <text x="29"  y="795" fill="#64748b" font-size="9">Orchestration</text>

  <rect x="150" y="786" width="11" height="11" rx="2" fill="rgba(76,29,149,0.4)"  stroke="#a78bfa"  stroke-width="1"/>
  <text x="167" y="795" fill="#64748b" font-size="9">Parser / OS Structure</text>

  <rect x="330" y="786" width="11" height="11" rx="2" fill="rgba(6,78,59,0.4)"    stroke="#34d399"  stroke-width="1"/>
  <text x="347" y="795" fill="#64748b" font-size="9">Filesystem / VFS / Paging</text>

  <rect x="540" y="786" width="11" height="11" rx="2" fill="rgba(136,19,55,0.4)"  stroke="#fb7185"  stroke-width="1"/>
  <text x="557" y="795" fill="#64748b" font-size="9">Crypto (FDE)</text>

  <rect x="12"  y="804" width="11" height="11" rx="2" fill="rgba(30,41,59,0.5)"   stroke="#94a3b8"  stroke-width="1"/>
  <text x="29"  y="813" fill="#64748b" font-size="9">Volume / Container</text>

  <rect x="180" y="804" width="11" height="11" rx="2" fill="rgba(251,146,60,0.3)" stroke="#fb923c"  stroke-width="1"/>
  <text x="197" y="813" fill="#64748b" font-size="9">Log Format / History / Archive detour</text>

  <rect x="440" y="804" width="11" height="11" rx="2" fill="rgba(8,51,68,0.4)"    stroke="#22d3ee"  stroke-width="1"/>
  <text x="457" y="813" fill="#64748b" font-size="9">Query Engine / Graph Nav</text>

  <rect x="650" y="804" width="11" height="11" rx="2" fill="rgba(120,53,15,0.3)"  stroke="#fbbf24"  stroke-width="1"/>
  <text x="667" y="813" fill="#64748b" font-size="9">Knowledge (zero-dep)</text>

</svg>
