<?xml version="1.0" encoding="UTF-8"?>
<svg viewBox="0 0 1120 584" xmlns="http://www.w3.org/2000/svg"
     style="width:100%;height:auto;font-family:'Inter',system-ui,sans-serif;">
  <defs>
    <pattern id="grid" width="40" height="40" patternUnits="userSpaceOnUse">
      <path d="M 40 0 L 0 0 0 40" fill="none" stroke="#1e293b" stroke-width="0.5"/>
    </pattern>
    <marker id="arr" markerWidth="10" markerHeight="7" refX="9" refY="3.5" orient="auto">
      <polygon points="0 0,10 3.5,0 7" fill="#475569"/>
    </marker>
    <marker id="arr-orange" markerWidth="10" markerHeight="7" refX="9" refY="3.5" orient="auto">
      <polygon points="0 0,10 3.5,0 7" fill="#fb923c"/>
    </marker>
  </defs>

  <rect width="1120" height="584" fill="#020617"/>
  <rect width="1120" height="584" fill="url(#grid)"/>

  <!-- INGESTION LAYER — outer dashed boundary (Parser + Navigation + Container rows) -->
  <rect x="12" y="108" width="1096" height="230" rx="8"
        fill="rgba(30,41,59,0.08)" stroke="#94a3b8" stroke-width="1" stroke-dasharray="6,3"/>
  <text x="20" y="105" fill="#94a3b8" font-size="9" font-weight="600" letter-spacing="0.5">INGESTION LAYER</text>

  <!-- ════ ARROWS (drawn first, behind all boxes) ════ -->

  <!-- ORCHESTRATION → PARSER -->
  <line x1="122" y1="84" x2="122" y2="124" stroke="#475569" stroke-width="1.5" marker-end="url(#arr)"/>
  <line x1="340" y1="84" x2="340" y2="124" stroke="#475569" stroke-width="1.5" marker-end="url(#arr)"/>
  <line x1="558" y1="84" x2="558" y2="124" stroke="#475569" stroke-width="1.5" marker-end="url(#arr)"/>
  <line x1="776" y1="84" x2="776" y2="124" stroke="#475569" stroke-width="1.5" marker-end="url(#arr)"/>
  <line x1="994" y1="84" x2="994" y2="124" stroke="#475569" stroke-width="1.5" marker-end="url(#arr)"/>

  <!-- PARSER → NAVIGATION -->
  <line x1="122" y1="178" x2="122" y2="202" stroke="#475569" stroke-width="1.5" marker-end="url(#arr)"/>
  <line x1="340" y1="178" x2="340" y2="202" stroke="#475569" stroke-width="1.5" marker-end="url(#arr)"/>
  <line x1="558" y1="178" x2="558" y2="202" stroke="#475569" stroke-width="1.5" marker-end="url(#arr)"/>
  <line x1="776" y1="178" x2="776" y2="202" stroke="#475569" stroke-width="1.5" marker-end="url(#arr)"/>
  <line x1="994" y1="178" x2="994" y2="202" stroke="#475569" stroke-width="1.5" marker-end="url(#arr)"/>

  <!-- NAVIGATION → CONTAINER ([P] [M]) -->
  <line x1="122" y1="262" x2="122" y2="286" stroke="#475569" stroke-width="1.5" marker-end="url(#arr)"/>
  <line x1="340" y1="262" x2="340" y2="286" stroke="#475569" stroke-width="1.5" marker-end="url(#arr)"/>

  <!-- NAVIGATION → [H] ([L] [Q] [C] — no container) -->
  <line x1="558" y1="262" x2="558" y2="360" stroke="#475569" stroke-width="1.2" stroke-dasharray="5,3" marker-end="url(#arr)"/>
  <line x1="776" y1="262" x2="776" y2="360" stroke="#475569" stroke-width="1.2" stroke-dasharray="5,3" marker-end="url(#arr)"/>
  <line x1="994" y1="262" x2="994" y2="360" stroke="#475569" stroke-width="1.2" stroke-dasharray="5,3" marker-end="url(#arr)"/>

  <!-- CONTAINER → [H] ([P] [M]) -->
  <line x1="122" y1="334" x2="122" y2="360" stroke="#475569" stroke-width="1.5" marker-end="url(#arr)"/>
  <line x1="340" y1="334" x2="340" y2="360" stroke="#475569" stroke-width="1.5" marker-end="url(#arr)"/>

  <!-- [H] → KNOWLEDGE -->
  <line x1="560" y1="474" x2="560" y2="496" stroke="#fb923c" stroke-width="2" marker-end="url(#arr-orange)"/>

  <!-- ════ ORCHESTRATION ════ -->

  <rect x="12" y="12" width="1096" height="72" rx="8" fill="#0f172a"/>
  <rect x="12" y="12" width="1096" height="72" rx="8"
        fill="rgba(136,19,55,0.15)" stroke="#fb7185" stroke-width="1.5" stroke-dasharray="6,3"/>
  <text x="20" y="9" fill="#fb7185" font-size="9" font-weight="600" letter-spacing="0.5">ORCHESTRATION</text>

  <rect x="18" y="16" width="1090" height="64" rx="6" fill="#0f172a"/>
  <rect x="18" y="16" width="1090" height="64" rx="6"
        fill="rgba(136,19,55,0.3)" stroke="#fb7185" stroke-width="1.5"/>
  <text x="563" y="40" fill="white"   font-size="20" font-weight="700" text-anchor="middle">Issen</text>
  <text x="563" y="57" fill="#fb7185" font-size="10" text-anchor="middle">issen-core · issen-correlation · forensic-pivot · issen-cli · issen-{artifact} wrappers</text>
  <text x="563" y="72" fill="#64748b" font-size="8"  text-anchor="middle">TimelineEvent · Evidence · plugin registry · YAML correlation rules · attack flow · Sigma/Suricata adapters</text>

  <!-- ════ COLUMN LABELS (inside ingestion boundary) ════ -->

  <text x="122" y="121" fill="#fbbf24" font-size="10" font-weight="600" text-anchor="middle">[P] Persistent</text>
  <text x="340" y="121" fill="#fbbf24" font-size="10" font-weight="600" text-anchor="middle">[M] Memory</text>
  <text x="558" y="121" fill="#fbbf24" font-size="10" font-weight="600" text-anchor="middle">[L] Log</text>
  <text x="776" y="121" fill="#fbbf24" font-size="10" font-weight="600" text-anchor="middle">[Q] Live Query</text>
  <text x="994" y="121" fill="#fbbf24" font-size="10" font-weight="600" text-anchor="middle">[C] Content-Addr</text>

  <!-- ════ PARSER ROW  y=126, h=52, bottom=178 ════ -->

  <rect x="18"  y="126" width="208" height="52" rx="6" fill="#0f172a"/>
  <rect x="18"  y="126" width="208" height="52" rx="6" fill="rgba(76,29,149,0.4)" stroke="#a78bfa" stroke-width="1.5"/>
  <text x="122" y="145" fill="white"   font-size="11" font-weight="600" text-anchor="middle">PARSER</text>
  <text x="122" y="163" fill="#a78bfa" font-size="9"  text-anchor="middle">browser · srum · mft-forensic</text>

  <rect x="236" y="126" width="208" height="52" rx="6" fill="#0f172a"/>
  <rect x="236" y="126" width="208" height="52" rx="6" fill="rgba(76,29,149,0.4)" stroke="#a78bfa" stroke-width="1.5"/>
  <text x="340" y="145" fill="white"   font-size="11" font-weight="600" text-anchor="middle">OS STRUCTURE</text>
  <text x="340" y="163" fill="#a78bfa" font-size="9"  text-anchor="middle">memf-windows · memf-linux</text>

  <rect x="454" y="126" width="208" height="52" rx="6" fill="#0f172a"/>
  <rect x="454" y="126" width="208" height="52" rx="6" fill="rgba(76,29,149,0.4)" stroke="#a78bfa" stroke-width="1.5"/>
  <text x="558" y="145" fill="white"   font-size="11" font-weight="600" text-anchor="middle">PARSER</text>
  <text x="558" y="163" fill="#a78bfa" font-size="9"  text-anchor="middle">winevt-forensic</text>

  <rect x="672" y="126" width="208" height="52" rx="6" fill="#0f172a"/>
  <rect x="672" y="126" width="208" height="52" rx="6" fill="rgba(76,29,149,0.4)" stroke="#a78bfa" stroke-width="1.5"/>
  <text x="776" y="145" fill="white"   font-size="11" font-weight="600" text-anchor="middle">PARSER</text>
  <text x="776" y="163" fill="#a78bfa" font-size="9"  text-anchor="middle">velociraptor-parser</text>

  <rect x="890" y="126" width="208" height="52" rx="6" fill="#0f172a"/>
  <rect x="890" y="126" width="208" height="52" rx="6" fill="rgba(76,29,149,0.4)" stroke="#a78bfa" stroke-width="1.5"/>
  <text x="994" y="145" fill="white"   font-size="11" font-weight="600" text-anchor="middle">PARSER</text>
  <text x="994" y="163" fill="#a78bfa" font-size="9"  text-anchor="middle">git-forensic · sigstore-forensic</text>

  <!-- ════ NAVIGATION ROW  y=204, h=58, bottom=262 ════ -->

  <rect x="18"  y="204" width="208" height="58" rx="6" fill="#0f172a"/>
  <rect x="18"  y="204" width="208" height="58" rx="6" fill="rgba(6,78,59,0.4)" stroke="#34d399" stroke-width="1.5"/>
  <text x="122" y="223" fill="white"   font-size="11" font-weight="600" text-anchor="middle">FILESYSTEM</text>
  <text x="122" y="240" fill="#34d399" font-size="9"  text-anchor="middle">ext4fs-forensic · 4n6mount</text>
  <text x="122" y="255" fill="#64748b" font-size="8"  text-anchor="middle">name → inode → block</text>

  <rect x="236" y="204" width="208" height="58" rx="6" fill="#0f172a"/>
  <rect x="236" y="204" width="208" height="58" rx="6" fill="rgba(6,78,59,0.4)" stroke="#34d399" stroke-width="1.5"/>
  <text x="340" y="223" fill="white"   font-size="11" font-weight="600" text-anchor="middle">PAGING</text>
  <text x="340" y="240" fill="#34d399" font-size="9"  text-anchor="middle">memf-hw</text>
  <text x="340" y="255" fill="#64748b" font-size="8"  text-anchor="middle">PID → EPROCESS → VA → PA</text>

  <rect x="454" y="204" width="208" height="58" rx="6" fill="#0f172a"/>
  <rect x="454" y="204" width="208" height="58" rx="6" fill="rgba(251,146,60,0.3)" stroke="#fb923c" stroke-width="1.5"/>
  <text x="558" y="223" fill="white"   font-size="11" font-weight="600" text-anchor="middle">LOG FORMAT</text>
  <text x="558" y="240" fill="#fb923c" font-size="9"  text-anchor="middle">winevt-forensic</text>
  <text x="558" y="255" fill="#64748b" font-size="8"  text-anchor="middle">timestamp → record → field</text>

  <rect x="672" y="204" width="208" height="58" rx="6" fill="#0f172a"/>
  <rect x="672" y="204" width="208" height="58" rx="6" fill="rgba(8,51,68,0.4)" stroke="#22d3ee" stroke-width="1.5"/>
  <text x="776" y="223" fill="white"   font-size="11" font-weight="600" text-anchor="middle">QUERY ENGINE</text>
  <text x="776" y="240" fill="#22d3ee" font-size="9"  text-anchor="middle">issen-remote-access</text>
  <text x="776" y="255" fill="#64748b" font-size="8"  text-anchor="middle">(endpoint, query) → rows</text>

  <rect x="890" y="204" width="208" height="58" rx="6" fill="#0f172a"/>
  <rect x="890" y="204" width="208" height="58" rx="6" fill="rgba(8,51,68,0.4)" stroke="#22d3ee" stroke-width="1.5"/>
  <text x="994" y="223" fill="white"   font-size="11" font-weight="600" text-anchor="middle">GRAPH NAV</text>
  <text x="994" y="240" fill="#22d3ee" font-size="9"  text-anchor="middle">cas · git-forensic</text>
  <text x="994" y="255" fill="#64748b" font-size="8"  text-anchor="middle">hash → blob → content graph</text>

  <!-- ════ CONTAINER ROW  y=288, h=46, bottom=334 ════ -->

  <rect x="18"  y="288" width="208" height="46" rx="6" fill="#0f172a"/>
  <rect x="18"  y="288" width="208" height="46" rx="6" fill="rgba(30,41,59,0.5)" stroke="#94a3b8" stroke-width="1.5"/>
  <text x="122" y="307" fill="white"   font-size="11" font-weight="600" text-anchor="middle">CONTAINER</text>
  <text x="122" y="324" fill="#94a3b8" font-size="9"  text-anchor="middle">ewf  (E01 / EWF)</text>

  <rect x="236" y="288" width="208" height="46" rx="6" fill="#0f172a"/>
  <rect x="236" y="288" width="208" height="46" rx="6" fill="rgba(30,41,59,0.5)" stroke="#94a3b8" stroke-width="1.5"/>
  <text x="340" y="307" fill="white"   font-size="11" font-weight="600" text-anchor="middle">CONTAINER</text>
  <text x="340" y="324" fill="#94a3b8" font-size="9"  text-anchor="middle">memf-format</text>

  <!-- [L][Q][C] merged -->
  <rect x="454" y="288" width="644" height="46" rx="6" fill="#0f172a"/>
  <rect x="454" y="288" width="644" height="46" rx="6"
        fill="rgba(30,41,59,0.08)" stroke="#334155" stroke-width="1" stroke-dasharray="5,3"/>
  <text x="776" y="309" fill="#475569" font-size="10" font-style="italic" text-anchor="middle">no outer container</text>
  <text x="776" y="325" fill="#334155" font-size="8"  text-anchor="middle">[L] [Q] [C] — LOG FORMAT / QUERY ENGINE / GRAPH NAV are the entry points</text>

  <!-- ════ [H] STATE-HISTORY STRIP  y=362, h=112, bottom=474 ════ -->

  <rect x="12" y="362" width="1096" height="112" rx="8" fill="#0f172a"/>
  <rect x="12" y="362" width="1096" height="112" rx="8"
        fill="rgba(251,146,60,0.1)" stroke="#fb923c" stroke-width="1.5" stroke-dasharray="6,3"/>
  <text x="20" y="360" fill="#fb923c" font-size="9" font-weight="600" letter-spacing="0.5">HISTORY LAYER</text>

  <!-- state-history-forensic sub-box (fills the full strip interior) -->
  <rect x="18" y="372" width="1090" height="90" rx="6" fill="#0f172a"/>
  <rect x="18" y="372" width="1090" height="90" rx="6"
        fill="rgba(120,53,15,0.25)" stroke="#fbbf24" stroke-width="1.5"/>
  <text x="563" y="388" fill="white"   font-size="11" font-weight="600" text-anchor="middle">state-history-forensic</text>
  <text x="563" y="404" fill="#fbbf24" font-size="9"  text-anchor="middle">HistoricalSource · TemporalCohort&lt;H&gt; · ClockProvenance · ArtifactRef · EpochTag · MaterializationSafety</text>
  <text x="563" y="418" fill="#94a3b8" font-size="9"  text-anchor="middle">[P^H]  ·  [M^H]  ·  [L^H]  ·  [Q^H]  ·  [C^H] ≅ [C]</text>
  <text x="563" y="431" fill="#64748b" font-size="8"  text-anchor="middle">[H] cross-cutting functor — a time-indexed lift of each primitive</text>

  <!-- ════ KNOWLEDGE  y=498, h=46, bottom=544 ════ -->

  <rect x="12" y="498" width="1096" height="46" rx="8" fill="#0f172a"/>
  <rect x="12" y="498" width="1096" height="46" rx="8"
        fill="rgba(120,53,15,0.3)" stroke="#fbbf24" stroke-width="1.5"/>
  <text x="20" y="496" fill="#fbbf24" font-size="9" font-weight="600" letter-spacing="0.5">KNOWLEDGE</text>
  <text x="560" y="517" fill="white"   font-size="12" font-weight="600" text-anchor="middle">forensicnomicon</text>
  <text x="560" y="535" fill="#fbbf24" font-size="9"  text-anchor="middle">magic bytes · format offsets · ESE / EVTX / NTFS field schemas — zero-dep · zero-I/O · compile-time format constants</text>

  <!-- ════ LEGEND  (below KNOWLEDGE which ends at y=530) ════ -->

  <line x1="12" y1="556" x2="1108" y2="556" stroke="#1e293b" stroke-width="1"/>

  <rect x="12"  y="566" width="11" height="11" rx="2" fill="rgba(136,19,55,0.4)"  stroke="#fb7185"  stroke-width="1"/>
  <text x="29"  y="575" fill="#64748b" font-size="9">Orchestration</text>

  <rect x="146" y="566" width="11" height="11" rx="2" fill="rgba(76,29,149,0.4)"  stroke="#a78bfa"  stroke-width="1"/>
  <text x="163" y="575" fill="#64748b" font-size="9">Parser / OS Structure</text>

  <rect x="320" y="566" width="11" height="11" rx="2" fill="rgba(6,78,59,0.4)"    stroke="#34d399"  stroke-width="1"/>
  <text x="337" y="575" fill="#64748b" font-size="9">Filesystem / Paging</text>

  <rect x="484" y="566" width="11" height="11" rx="2" fill="rgba(251,146,60,0.3)" stroke="#fb923c"  stroke-width="1"/>
  <text x="501" y="575" fill="#64748b" font-size="9">Log Format / History</text>

  <rect x="626" y="566" width="11" height="11" rx="2" fill="rgba(8,51,68,0.4)"    stroke="#22d3ee"  stroke-width="1"/>
  <text x="643" y="575" fill="#64748b" font-size="9">Query Engine / Graph Nav</text>

  <rect x="820" y="566" width="11" height="11" rx="2" fill="rgba(30,41,59,0.5)"   stroke="#94a3b8"  stroke-width="1"/>
  <text x="837" y="575" fill="#64748b" font-size="9">Container</text>

  <rect x="918" y="566" width="11" height="11" rx="2" fill="rgba(120,53,15,0.3)"  stroke="#fbbf24"  stroke-width="1"/>
  <text x="935" y="575" fill="#64748b" font-size="9">Knowledge (zero-dep)</text>

</svg>