<?xml version="1.0" encoding="UTF-8"?>
<svg id="Layer_1" xmlns="http://www.w3.org/2000/svg" version="1.1" viewBox="0 0 3549.63 3398.77">
  <!-- Generator: Adobe Illustrator 30.4.0, SVG Export Plug-In . SVG Version: 2.1.4 Build 226)  -->
  <defs>
    <style>
      .st0 {
        fill: #303441;
      }

      .st1 {
        fill: #000217;
      }

      .st2 {
        fill: #9d9da3;
      }
    </style>
  </defs>
  <path class="st1" d="M1348.58,83.11c-24.94-21.64-50.54-43.25-78.36-63.33l-15.09-12.57c-5.44-4.53-10.67-9-17.4-6.48l-35.3,13.21-176.74,71.14-279.74,119.11c31.53,27.14,63.9,47.02,99.49,64.63,62.95,31.14,127.07,55.99,194.15,77.98,110.41,31.7,221.58,56.1,336.01,68.47,91.01,9.84,181.43,9.67,271.16-6.22l48.4-23.43-266.69-233.37-79.9-69.14Z"/>
  <path class="st1" d="M761.73,642.69l-21.18-55.01-27.61-73c28.99,20.35,55.41,43.78,80.03,67.58l-20.27-113.87c20.44,26.68,33.63,54.87,51.17,83.56,1.62-45.16,2.36-87.96,7.89-135.17,24.81,71.69,40.19,143.66,54.55,217.6,12.47,64.21,28.63,125.32,48.83,186.64l-4.73-92.34c-3.25-63.32,8.49-181.19,23.79-240.75l15.69-61.07-12.75,5.64-57.64,107.97,13.47-111.86-24.32-37.31,62.02-12.5-16.23-27.18-89.66,10.82c-21.94,17.5-45.07,32.62-68.13,49.33l-30.33,21.99-46.79,52.95c-39.4,28.21-85.21,44.39-129.3,64.96l-28.63,65.86,72.24-49.94,79.99,27.05c3.21,1.09,6.9-3.29,8.39-6.99,6.72,3.64,13.53,5.78,19.04,12.08l38.69,44.17,1.77-1.21Z"/>
  <path class="st1" d="M1117.75,480.13c8.92.54,23.42,12.28,39.89,14.44l-14.56-14.35,2.16-31.54-24.04,11.83-86.1-80.53,29.21,97.99,73.26,78.77c-5.77-26.23-14.18-50.47-22.76-74.55.13,0-.58-.64-1.66-1.92-.67-2.4,2.43-3.53,3.31-1.04.14.43.51.86,1.28.9Z"/>
  <path class="st1" d="M22.55,501.84l84.79-38.76,28.99,13.19c2.73.17,4.19-1.99,5.44-4.01,1.32-2.13,1.2-3.08-.87-4.75-13.79-11.16-25.2-23.46-38.1-36.38L0,479.11l12.79,86.99c6.78,6.22,12.21,12.91,20.53,17.57l-10.77-81.84Z"/>
  <path class="st1" d="M1380.9,483.01l-1.77-32.23c-5.89-.8-10.92-.87-17.39.14l-81.13,117.91,100.29-85.83Z"/>
  <path class="st1" d="M1430.36,497.24c-1.34-2.61-4.04-.06-1.92,1.57l1.92-1.57Z"/>
  <path class="st1" d="M1260.48,720c-2.17-.12-5.43,2.77-9.83.18l71.32-104.45-100.28,80.99c-13.61,18.79-26.26,36.69-36.74,57.35l-31.75,76.32-81.92,88.08c-43.23,16.03-76.2,39.02-120.95,56.98l-39.32,15.78,132.72-3.33c17.26-.43,38.34-2.88,53.7,5.42l50.3,39.26,72.56,58.84-57.64-95.78-24.02-21.85,198.34,7.27c6.06.22,11.64,3.9,16.74.83-2.64-4.86-6.49-2.36-10.2-3.04-85.44-15.65-169.49-32.55-253.38-53.31,54.41-17.76,105.66-28.01,159.32-39.55,70.31-15.13,139.82-25.23,210.63-32.31-53.3-15.86-105.82-22.26-160.1-24.77-53.58,8.01-102.08,22.38-156.4,36.87,21.84-19.5,44.72-33.98,69.43-47.93l160.78-90.75,36.35-16.85-17.05,22.06c-18.63,24.1-38.77,46.88-53.14,75.73l146.38-88.5,82.15-51.81-20.55,77.18-38.66,143.3-91.26,118.88-87.1,118.37,49.27-24.32-15.6,52.41-119.34,70.69-75.28,44.71,118.24,57.42c57.58-101.67,113.87-201.32,175.41-299.56,43.6-69.59,82.41-140.33,117.28-214.09l-7.23-149.96,5.27-14.77c-40.32-45.4-80.83-89.63-125.1-131.06l-23.19-19.1-.67,2.15,36.3,52.86-55.28,14.73,65.83,20.04,53.86,26.19c-13.03,8.53-24.13,19.64-37.33,23.7-47.95,7.39-93.87,14.7-140.8,26.37l-92.91,54.47.86,1.65Z"/>
  <polygon class="st1" points="83.03 541.15 103.99 507.01 63.13 516.19 55.64 554.67 83.03 541.15"/>
  <polygon class="st1" points="200.79 555.89 169.59 518.9 129.66 511.74 318.26 727.83 344.05 721.97 200.79 555.89"/>
  <path class="st1" d="M1018.85,705.82l-2.75-66.86-4.22-117.84c-16.43,69.77-23.5,141.01-23.87,214.08l30.84-29.37Z"/>
  <polygon class="st1" points="1081.51 604.55 1050.1 520.62 1046.77 641.87 1081.51 604.55"/>
  <polygon class="st1" points="133.52 589.79 151.36 561.81 110.92 568.96 103.66 612.82 133.52 589.79"/>
  <rect class="st1" x="33.92" y="585.02" width="1.41" height="1.41" transform="translate(-404.03 196.04) rotate(-45)"/>
  <path class="st1" d="M625.96,683.59l-57.67-35.17,91.46,5.66,31.32,34.54-8.39-38.3-67.3-55.55-77.1,33.3-99.46,63.63,61.18-4.18c25.57,14.43,48.6,31.29,72.16,48.84l16.9,49.1,36.9-101.86Z"/>
  <path class="st1" d="M948.09,881.01l63.69-78.27,111.69-131.99,56.39-68.15-120.25,93.72-47.82,68.68c-23.81,37.45-46.32,74.71-63.7,116.02Z"/>
  <polygon class="st1" points="179.13 645.42 197.48 615.75 157.19 623.48 150.49 667.5 179.13 645.42"/>
  <path class="st1" d="M762.96,644.2l-.54,3.08c1.52-.4,1.89-2.14.54-3.08Z"/>
  <polygon class="st1" points="197.46 725.33 229.07 700.19 247.05 671.65 204.5 678.64 197.46 725.33"/>
  <path class="st1" d="M469.93,872.61l45.65-4.65c5.97-.61,12.13,4.98,17.26,8.64-.49,12.7.26,23.31,4.47,35.62,9.29-14.35,15.57-27.01,21.63-41.65l-22.61-45.08,12.33-53.08c1.33-5.71-3.71-11.58-5.51-16.09-5.29-13.27-11.87-25.09-19.58-37.54-35.7-4.47-69.76-9.07-105.46-9.88l-68.32,28.08-43.8,18.46c-11.36,26.75-22.71,52.89-31.75,80.61l10.08,13.31,29.58-66.74,30.78-2.19c-22.07,32.24-38.03,69.88-50.48,105.37,4.49,3.8,7.34,7.57,10.81,13.25,16.91-27.64,30.48-54.93,45.63-83.65,10.89-2.88,21.57-4.04,34.21-3.14l-65.66,104.26,12.93,17.56,64.99-88.35,24.94,8.88-15.21,23.35-51.96,74.02,21.7,1.7,54.2-72.25,39.14-8.85Z"/>
  <polygon class="st1" points="248.43 780.97 276.63 757.74 295.28 728.11 254.02 734.95 248.43 780.97"/>
  <polygon class="st1" points="737.77 791.72 685.85 789.27 623.7 858.9 737.77 791.72"/>
  <rect class="st1" x="1337.92" y="807.02" width="1.41" height="1.41" transform="translate(-179.0752 1183.134) rotate(-45)"/>
  <rect class="st1" x="945.92" y="883.02" width="1.41" height="1.41" transform="translate(-347.63 928.21) rotate(-45)"/>
  <path class="st1" d="M979.04,936.28c25.61-10.59,44.54-25.14,64.68-39.4-24.39,10.14-46.33,23.21-64.68,39.4Z"/>
  <path class="st1" d="M483.54,929.7l33.19-7.21c-2.5-3.47-6.35-10.69-10.95-11.49l-35.69-6.22-96.9,68.21c-.25,18.71-1.36,36.92,2.76,57.5,12.05-13.73,16.12-29.66,21.45-46.33,29.88-16.29,57.44-34.48,86.14-54.46Z"/>
  <path class="st1" d="M697.55,1065.63c15.53-10.28,28.29-9.86,41.68-2.7l60.35,32.26,153.47-10.22,138.65-25.34-30.55-38.38-139.1-12.48c-27.02.63-52.52,14.1-78.55,20.27-43.55,10.32-85.21,19.75-130.26,26.18l10.19-76.22-73.11-61.01-81.64,42.04-85.17,44.68-90.34,165.02,61.86,95.1,71.89-11.05c-.35-.75-.8-2.16-.41-3.45l-63.75,4.55-38.1-76.35,82.86-152.16,145.3-74.95,51.81,42.73-7.08,71.5Z"/>
  <path class="st1" d="M445.83,1006.91l14.45-13.72,77.29-44.44-14.1-11.99-29.51-.79c.7,6.46-.89,10.88-4.58,14.42l-19.51,18.75c-4.93,4.74-11.75,8.84-14.43,15.15l-9.6,22.62Z"/>
  <path class="st1" d="M1527.97,1140.48l25.03,23.96,20.39-50.3c1.87-14.31,3.06-35.21-3.5-48.07l-43.6-85.52-7.08,76.2,17.06,19.62c2.95,3.39,9.62,8.61,7.85,14.09l-16.15,50.02Z"/>
  <path class="st1" d="M422.74,1038.58l-10.66-16.79-14.32,11.73,17.24,29.55c2.08-8.16,9.23-16.14,7.74-24.48Z"/>
  <path class="st1" d="M615.46,1045.39l-77.03,42.13c-4.18.95-4.88,4.03-5.51,6.82l-21.97,97.58,79.23,82.37c-7.26,9.19,7.54,15.8,14.02,29.23,3.35,6.93,7.85,8.96,12.49,14.37l17.47,20.35,23.2,26.54c3.01,3.44,5.56,4.53,7.95,8.54,13.44,22.53,41.88,41.17,56.47,66.41l31.19,27.58c2.87,12.41,10.85,21.38,22.23,25.94l25.31,26.49c4.19,4.39,7.65,13.94,12.79,16.87,21.89,12.47,20.67,29.98,52.52,51.98l14.44,19.37c4.91,6.59,9.81,10.6,15.34,17.15l10.86,12.85c4.51,5.34,10.24,9.85,15.16,14.64l25.42,24.67c10.52,10.22,20.38,19.02,30.24,29.87l9.6,10.56c9.77,15.38,26.76,23.74,39.02,36.72,8.12,8.6,14.82,16.58,24.09,24.23,4.13,3.41,5.92,9.07,10.96,13.12l11,8.86,13.19,12.48c6.66,6.3,11.96,11.59,18.23,17.86l29.99,29.96,23.06,21c5.21,4.74,9.76,7.97,13.96,14.36l14.71,12.77c5.83,10.04,14.26,16.47,22.69,23.53l21.82,18.29,20.57,21.28c5.4,5.59,10.89,8.53,16.46,13.79l29.81,28.15,52.17,49.76,31.22,30.98,22.44,21.13,28.21,25.96,10.84,10.63c7.51,7.37,14.98,11.15,21.43,19.05l19.98,15.72c6.95,10.98,17.46,17.23,26.22,25.97,5.16,5.15,7.8,9.97,14.91,13.67,3.56,1.85,9.07,6.24,12.13,9.18l21.47,20.6,15.34,14.89,21.95,19.84,20.25,17.82c8.36,7.36,15.03,16.11,26.01,19.92,6.07,9.12,13.22,17.47,23.95,19.93,4.71,8.57,12.14,13.22,19.92,18.45l44.84,42.68,25.02,17.55,27.51,26.38,24.65,19,14.42,11.9,42.21,34.15c5.69,4.61,13.58,9.6,18.13,15.17,11.04,13.5,22.32,24.27,37.67,32.77,10.74,5.95,17.56,17.19,25.75,26.04l23.98,18.09c11.87,12.8,25.41,22.33,38.87,33.14l17.87,14.37,17.82,13.98,26.72,23.11,17.22,14.88,12.8,9.1,31.58,24.35,15.46,12.38c9.93,7.95,19.21,13.49,29.59,21.11l13.55,9.94c10.62,7.8,20.97,14.16,29.84,24.49l11.74,9.91c5.12,7.92,13.62,10.47,20.51,15.76l39.5,30.35,39.4,32.46,20.33,13.63,15.73,10.42,26.93,19.22,30.6,23.25,34.09,26.05,26.03,17.91,28.28,19.85,26.19,19.6,25.22,16.93,14.33,11.17,22.67,15.79,25.81,19.95,27.9,16.33,29.33,20.58,15.38,12.22,24.43,15.88,35.4,22.64,39.25,29.16,29.45,20.36,29.15,16.91c18.85,14.52,38.21,25.62,59.6,36.57,7.2,3.68,12.87,10.82,22.33,11.06,9.97,10.16,23.2,13.48,37.03,14.68,12.48,9.15,26.22,14.9,41.52,17.09l15.45,4.19,26.59,7.36,59.21,11.37,23.46,4.73,35.18,6.58,23.23,3.04,46.05,5.83,36.15,2.07c5.7.33,14.03.89,19.22,2.47,6.97,2.13,12.56-1.5,18.58-.76,24.75,3.03,47.77,5.14,72.66,3.28l61.08-.09,26.11-1.64,26.66-5.14,24.36-7.56c1.93-.6,5.61,1.54,6.88-.17,1.7-2.29,2.27-5.43,2-7.83,1.09-.26,2.32-.31,4.79-1.86-1.91-1.39-3.53-3.02-4.42-5.15,4.53-8.51-14.11-26.05-22.19-29.14-9.19-3.52-16.3-6.68-23.14-13.8l-13.58-7.59c-8.82-14.38-44.51-31.16-64.98-40.02l-13.7-8.08-33.35-23.87c-11.55-5.1-20.23-11.02-30.23-18.15-8.5-6.06-16.42-10.55-23.95-18.57-4.37-4.65-14.2-6.49-20.15-9.2-14.3-6.51-25.25-23.77-43.5-28.63-2.74-7.41-8.45-10.71-16.34-11.68l-18.11-11.71c-9.53-10.45-18.64-15.68-31.19-21.64l-15.24-12.11-19.09-11.6-31.26-20.35-18.26-11.94-18.98-12.76-14.91-11.01-16.14-12.04-16.39-11.7-32.15-19.84-18.02-11.82-36.05-26.02-27.4-17.95c-5.33-3.49-10.27-4.54-14.69-10.07-8.94-11.19-24.28-15.74-35.12-24.42l-22.39-17.91-30.94-18.61c-11.64-7-19.92-14.09-30.52-21.71l-24.27-17.45-21.03-15.56c-7.2-1.87-12.75-5.43-14.87-13.08-11.18-3.14-20.21-9.96-29.02-16.37l-21.02-15.29-21.05-14.88-23.04-19.09-27.06-18.35c-7.4-5.02-12.23-9.86-19.82-15.14l-18.52-12.87-34.92-21.34-30.15-24.06c-8.71-6.95-20.28-11.57-26.94-20.71l-18.54-13.53-19.97-16.32-23.04-17.23c-7.54-5.63-13.72-12.67-23.63-16.24l-8.69-8.76c-9.34-4.27-15.81-10.57-23.53-16.55l-27.09-20.94-30.2-22.26-14.43-11.02-14.37-12-24.02-21.77-14.53-9.24-45.55-34.82-27.96-24.09-23.72-22.24-17.94-11.85-42.47-34c-4.46-3.57-6.86-7.88-13.41-10.86-8.78-3.99-16.55-12.84-24.44-18.94l-16.81-13.01-15.17-15.14-44.13-31.85-34.64-32.99-32.03-22.16-26.94-23.3-22.1-17.97c-13.08-10.64-25.38-20.03-38.01-31.79l-24.88-23.17-17.63-16.19-42.95-38.98-13.85-10.91c-15.03-11.84-25.41-23.05-40.15-31.47l-17.98-17.65-16.12-14.17c-8.31-7.31-20.23-11.54-26.95-20.84-12.19-16.9-27.17-28.7-45-39.35l-15.37-12.69c-11.6-9.58-14.28-19.05-21.41-24.45l-17-12.9-18.72-14.69c-5.32-4.17-10.67-4.71-14.9-9.67l-19.3-22.57c-13.23-10.72-26.12-19.42-37.63-32.78l-13.24-10.68-22.03-19.58c-4.87-4.33-8.57-8.47-13.24-13.03l-15.14-14.8c-6.22-6.08-16.53-8.41-21.86-15.89-10.87-15.23-24.78-26.16-41.32-34.9-8.84-11.41-16.33-23.38-28.58-31.38l-25.95-22.3c-10.7-9.19-18.22-19.43-30.68-27.48-9.79-6.32-17.14-17.97-25.99-25.35l-22.01-18.36c-9.69-8.08-16.85-18.71-27.97-25.99-9.92-8.43-20.32-16-25.3-28.16-10.33-4.62-19.1-10.63-24.09-20.11-12.97-5.03-19.9-16.11-28.45-25.79l-15.15-12.94-15.53-10.3c-26.75-37.86-50.87-38.12-65.02-55.22-11.14-13.46-22.14-27.87-39.08-34.81-7.23-2.96-8-10.16-12.66-15.54-7.35-8.5-15.57-18.42-25.02-24.5-5.39-3.47-11.46-2.19-16.01-8.74l-9.03-12.97-10.01-11.64c-2.13-2.48-7.56-7.76-10.69-8.65-10.62-2.23-19.96-12.01-27.57-21.17-6.48-7.8-15.71-13.24-21.6-22.28-3.9-5.99-18.09-8.39-19.81-15.7s-4.68-10.05-10.91-13.76l-16.37-9.76c-1.36-.81-3.02-.56-3.98,2.22l-108.47-104.89-12.66,2.68Z"/>
  <path class="st1" d="M1603.3,1082.49c-1.83-.41-2.43,1.74-.79,2.34l.79-2.34Z"/>
  <path class="st1" d="M1894,1278.92l95.8-12.11,209.37-29.29,124.08,87.53,193.23-32.96-149.49-66.63-130.66-45.39-133.5-41.11-218.93,23.62-178.95-41.03c-35.36-9.85-67.9-22.21-99.93-37.53l-.51,2.36c81.48,72.93,170.64,136.54,267.42,187.55,7.62,4.02,14.13,6,22.07,5Z"/>
  <rect class="st1" x="1125.92" y="1095.02" width="1.41" height="1.41" transform="translate(-444.8153 1117.5806) rotate(-45)"/>
  <path class="st1" d="M922.14,1182.45l9.74-.21,208.88,5.03,41.1,9.43-53.66-99.22,12.17,76.15c-9.09-7.13-15.47-13.84-24.92-18.05l-305.21-2.6,10.15,26.24,101.74,3.24Z"/>
  <polygon class="st1" points="1483.29 1214.54 1510.69 1203.14 1483.67 1125.48 1364.14 1256.95 1483.29 1214.54"/>
  <polygon class="st1" points="1667.81 1242.63 1610.29 1135.37 1578.74 1164.57 1624.62 1213.76 1665.9 1245.84 1667.81 1242.63"/>
  <path class="st1" d="M1685,1230.64c-1.82-.27-2.42,1.9-.66,2.53l.66-2.53Z"/>
  <path class="st1" d="M1686.66,1232.65l-.94,2.15,72.58,71.54c72.26,66.68,146.94,128.44,223.91,189.51,3.03,2.4,6.7,8.95,11.38,7.24l133.81-48.7,32.49-10.5,145.72,146.53,34.04,35.04,222.39-30.09-384.11-210.7-224.27-6.12-80.92-45.05-186.08-100.84Z"/>
  <path class="st1" d="M1668.81,1244.43l-.93,3.36c-.25-.78,4.07.09.93-3.36Z"/>
  <polygon class="st1" points="1494.71 1343.17 1563.12 1303.07 1531.17 1256.27 1327.11 1335.2 1410.79 1351.71 1494.71 1343.17"/>
  <path class="st1" d="M1317.99,1425.5l-72.5-46.59-95.94-60.03-92.92-56.59,58.06,82.91,216.28,98.14,49.45,34.84c.43.27,1.36.27,1.9-.13-2.26-5.94-7.11-10.79-11.99-16.06l-64.01-69.06c1.46,13.31,10.58,20.39,13.58,30.49.46.05.86.3,1.08.66l.93,1.53c.27.45.75.81.98.93,2.07,2.16-1.1,4.32-2.42,1.88l-.42-.47-1.3-1.77c.26-.53-.24-1.04-.73-.66Z"/>
  <path class="st1" d="M1767.73,1517.53l-48.96-34.17-162.18-107.2-19.12-36.04c-12.36,6.89-21.75,21.97-35.75,24.2l-77.04,12.27,135.19,51.7,67.61,30.63,138.79,60.5c.37-.87.88-1.39,1.45-1.89Z"/>
  <path class="st1" d="M1849.65,1709.62c-70.66-70.32-144.64-137-224.4-198.13-28.75-22.04-59.77-37.15-92.31-52.11l-127.17-58.47c-23.36-10.74-45.54-20.82-71.41-27.9l255.98,174.54,45.39,29.46,212.38,134.52,1.53-1.9Z"/>
  <path class="st1" d="M1301.54,1385.41c-2.45-1.07-3.16,2.52-.95,3.22l.95-3.22Z"/>
  <path class="st1" d="M1302.62,1388.76l-.96,1.98c-.11,2.24,2.03,2.58,2.97,2.01,1.08-.66,1.52-1.86,1-3s-1.9-1.56-3-.99Z"/>
  <path class="st1" d="M1383.87,1481.76l1.38-2.61c-3.83-2.55-6.41.6-1.38,2.61Z"/>
  <rect class="st1" x="1387.92" y="1483.02" width="1.41" height="1.41" transform="translate(-642.4347 1416.4851) rotate(-45)"/>
  <polygon class="st1" points="1768.79 1518.43 1767.16 1519.97 1770.63 1520.73 1771.6 1519.75 1768.79 1518.43"/>
  <path class="st1" d="M1772.45,1522.62l1.08-1.08c-1.09-1.61-2.69,0-1.08,1.08Z"/>
  <path class="st1" d="M1379.75,1527.93c1.08,1.6,2.67,0,1.08-1.08l-1.08,1.08Z"/>
  <path class="st1" d="M1382.43,1530.61l1.08-1.08c-1.08-1.6-2.67,0-1.08,1.08Z"/>
  <path class="st1" d="M1693.1,1850.29l-32-37.53c-88.66-97.66-178.51-192.52-278.05-282.56l81.52,121.75,106.26,160.18,122.27,38.17Z"/>
  <path class="st1" d="M1541.02,1576.49c-1.93-.12-2.55,2.1-.79,2.95l.79-2.95Z"/>
  <path class="st1" d="M1542.86,1578.66l-2.07,1.48,177.17,282.26,97.81,50.48,270.02,141.38,60.16,32.27,99.43,52.84c-16.2-17.76-34.58-30.33-53.41-45.12l-219.4-172.24-42.64-43.62-71.37-72.65-95.56-96.63-220.14-130.45Z"/>
  <rect class="st1" x="1803.92" y="1597.02" width="1.41" height="1.41" transform="translate(-601.2013 1744.0314) rotate(-45)"/>
  <path class="st1" d="M2179.73,1923.68l-64.7-62.38-102.21-95.98c-66.63-57.74-132.26-114.58-206.5-166.29l215.41,268.82,156.35,58.11c.47-1.41,1.15-1.92,1.65-2.29Z"/>
  <path class="st1" d="M1850.8,1710.5l-.88,2.36c2.06.76,2.84-1.84.88-2.36Z"/>
  <path class="st1" d="M2181.36,1925.3l-2.32.85c2.46,2.2,2.2-1.66,2.32-.85Z"/>
  <path class="st1" d="M2245.75,2139.93c1.08,1.6,2.67,0,1.08-1.08l-1.08,1.08Z"/>
  <path class="st1" d="M2248.43,2142.61l1.08-1.08c-1.08-1.6-2.67,0-1.08,1.08Z"/>
  <rect class="st1" x="2251.92" y="2143.02" width="1.41" height="1.41" transform="translate(-856.0655 2220.7349) rotate(-45)"/>
  <polygon class="st1" points="3548.96 3375.69 3547.65 3375.73 3548.96 3375.77 3550.31 3375.77 3551.61 3375.73 3550.31 3375.69 3548.96 3375.69"/>
  <path class="st0" d="M3541.37,3375.63c.27,2.4-.3,5.55-2,7.83-1.27,1.71-4.95-.43-6.88.17l-24.36,7.56-26.66,5.14-26.11,1.64-61.08.09c-24.89,1.85-47.91-.26-72.66-3.28-6.02-.74-11.61,2.89-18.58.76-5.19-1.58-13.52-2.14-19.22-2.47l-36.15-2.07-46.05-5.83-23.23-3.04-35.18-6.58-23.46-4.73-59.21-11.37-26.59-7.36-15.45-4.19c-15.3-2.19-29.03-7.94-41.52-17.09-13.83-1.21-27.06-4.52-37.03-14.68-9.46-.24-15.13-7.37-22.33-11.06-21.39-10.94-40.75-22.05-59.6-36.57l-29.15-16.91-29.45-20.36-39.25-29.16-35.4-22.64-24.43-15.88-15.38-12.22-29.33-20.58-27.9-16.33-25.81-19.95-22.67-15.79-14.33-11.17-25.22-16.93-26.19-19.6-28.28-19.85-26.03-17.91-34.09-26.05-30.6-23.25-26.93-19.22-15.73-10.42-20.33-13.63-39.4-32.46-39.5-30.35c-6.89-5.29-15.39-7.83-20.51-15.76l-11.74-9.91c-8.87-10.34-19.22-16.7-29.84-24.49l-13.55-9.94c-10.38-7.62-19.67-13.16-29.59-21.11l-15.46-12.38-31.58-24.35-12.8-9.1-17.22-14.88-26.72-23.11-17.82-13.98-17.87-14.37c-13.45-10.82-26.99-20.34-38.87-33.14l-23.98-18.09c-8.19-8.85-15-20.09-25.75-26.04-15.36-8.51-26.63-19.28-37.67-32.77-4.55-5.56-12.44-10.56-18.13-15.17l-42.21-34.15-14.42-11.9-24.65-19-27.51-26.38-25.02-17.55-44.84-42.68c-7.78-5.22-15.21-9.87-19.92-18.45-10.72-2.47-17.88-10.82-23.95-19.93-10.98-3.81-17.65-12.56-26.01-19.92l-20.25-17.82-21.95-19.84-15.34-14.89-21.47-20.6c-3.06-2.94-8.57-7.33-12.13-9.18-7.11-3.7-9.74-8.52-14.91-13.67-8.76-8.74-19.27-14.99-26.22-25.97l-19.98-15.72c-6.45-7.9-13.92-11.68-21.43-19.05l-10.84-10.63-28.21-25.96-22.44-21.13-31.22-30.98-52.17-49.76-29.81-28.15c-5.57-5.26-11.06-8.2-16.46-13.79l-20.57-21.28-21.82-18.29c-8.42-7.06-16.86-13.49-22.69-23.53l-14.71-12.77c-4.2-6.39-8.76-9.61-13.96-14.36l-23.06-21-29.99-29.96c-6.28-6.27-11.57-11.56-18.23-17.86l-13.19-12.48-11-8.86c-5.04-4.06-6.82-9.71-10.96-13.12-9.26-7.65-15.96-15.63-24.09-24.23-12.26-12.98-29.24-21.34-39.02-36.72l-9.6-10.56c-9.87-10.85-19.72-19.65-30.24-29.87l-25.42-24.67c-4.93-4.78-10.65-9.3-15.16-14.64l-10.86-12.85c-5.53-6.55-10.43-10.56-15.34-17.15l-14.44-19.37c-31.85-22-30.63-39.51-52.52-51.98-5.14-2.93-8.6-12.48-12.79-16.87l-25.31-26.49c-11.38-4.55-19.36-13.52-22.23-25.94l-31.19-27.58c-14.59-25.24-43.03-43.88-56.47-66.41-2.39-4.01-4.94-5.1-7.95-8.54l-23.2-26.54-17.47-20.35c-4.64-5.41-9.14-7.43-12.49-14.37-6.48-13.42-21.28-20.03-14.02-29.23l41.7,42.56,182.42,185.17,153.09,150.77,83.94,82.17,50.52,48.15c223.68,213.19,451.46,420.22,687.57,619.79,146.13,123.51,292.52,245.05,443.61,362.26l227.4,170.83,372.1,261.65,140.31,93.8,30.75,9.35c4.96,1.51,7.42,5.52,12.8,7.13,10.31,3.08,20.1,2.82,30.02,4.11l10.55,1.37,35.73,8.13c7.87,1.79,12.21,5.84,21.13,4.06,9.43-1.88,19.6,6.5,28.44,7.14l17.38,1.24,111,18.09c90.18,14.7,180.35,20.27,270.71,23.59Z"/>
  <polygon class="st2" points="3548.96 3375.69 3550.31 3375.69 3551.61 3375.73 3550.31 3375.77 3548.96 3375.77 3547.65 3375.73 3548.96 3375.69"/>
  <path class="st0" d="M2245.75,2139.93c1.08,1.6,2.67,0,1.08-1.08l2.68,2.68c-1.08-1.6-2.67,0-1.08,1.08l-2.68-2.68Z"/>
  <rect class="st0" x="2251.92" y="2143.02" width="1.41" height="1.41" transform="translate(-856.0655 2220.7349) rotate(-45)"/>
  <g>
    <g>
      <path class="st0" d="M1684.35,1233.17c-1.77-.64-1.17-2.8.66-2.53l1.65,2,186.08,100.84,80.92,45.05,224.27,6.12,384.11,210.7-222.39,30.09-34.04-35.04-145.72-146.53-32.49,10.5-133.81,48.7c-4.68,1.7-8.35-4.84-11.38-7.24-76.97-61.08-151.65-122.84-223.91-189.51l-72.58-71.54c-.25-.93-.75-1.4-1.37-1.62Z"/>
      <path class="st0" d="M1373.78,727.1l-50.13-3.57-63.16-3.54-.86-1.65,92.91-54.47c46.93-11.68,92.85-18.98,140.8-26.37,13.2-4.06,24.3-15.17,37.33-23.7l-53.86-26.19-65.83-20.04,55.28-14.73-36.3-52.86-1.5-1.17c-2.12-1.63.57-4.18,1.92-1.57.02.16.11.37.26.59l23.19,19.1c44.28,41.43,84.78,85.66,125.1,131.06l-5.27,14.77,7.23,149.96c-34.87,73.75-73.69,144.5-117.28,214.09-61.54,98.24-117.83,197.89-175.41,299.56l-118.24-57.42,75.28-44.71,119.34-70.69,15.6-52.41-49.27,24.32,87.1-118.37,91.26-118.88,38.66-143.3,20.55-77.18-82.15,51.81-146.38,88.5c14.37-28.84,34.51-51.63,53.14-75.73l17.05-22.06-36.35,16.85Z"/>
      <path class="st0" d="M1540.23,1579.45c-1.76-.85-1.14-3.07.79-2.95l1.84,2.16,220.14,130.45,95.56,96.63,71.37,72.65,42.64,43.62,219.4,172.24c18.83,14.78,37.21,27.36,53.41,45.12l-99.43-52.84-60.16-32.27-270.02-141.38-97.81-50.48-177.17-282.26c.35-.42-.05-.87-.56-.69Z"/>
      <path class="st2" d="M1260.48,720l63.16,3.54,50.13,3.57-160.78,90.75c-24.71,13.95-47.59,28.43-69.43,47.93,54.32-14.49,102.82-28.86,156.4-36.87,54.27,2.51,106.79,8.91,160.1,24.77-70.8,7.08-140.32,17.18-210.63,32.31-53.66,11.55-104.92,21.79-159.32,39.55,83.89,20.76,167.94,37.66,253.38,53.31,3.71.68,7.56-1.82,10.2,3.04-5.1,3.07-10.67-.61-16.74-.83l-198.34-7.27,24.02,21.85,57.64,95.78-72.56-58.84-50.3-39.26c-15.36-8.3-36.43-5.85-53.7-5.42l-132.72,3.33,39.32-15.78c44.75-17.96,77.72-40.95,120.95-56.98l81.92-88.08,31.75-76.32c10.49-20.66,23.13-38.56,36.74-57.35l100.28-80.99-71.32,104.45c4.4,2.59,7.67-.3,9.83-.18ZM1142.63,864.73l-1,1,1,1,1-1-1-1Z"/>
      <path class="st0" d="M1894,1278.92c-1.04-1.46-1.05-3.6.98-4.91l207.85-135.06,133.5,41.11,130.66,45.39,149.49,66.63-193.23,32.96-124.08-87.53-209.37,29.29-95.8,12.11Z"/>
      <path class="st2" d="M697.55,1065.63l7.08-71.5-51.81-42.73-145.3,74.95-82.86,152.16,38.1,76.35,63.75-4.55c-.39,1.29.06,2.7.41,3.45l-71.89,11.05-61.86-95.1,90.34-165.02,85.17-44.68,81.64-42.04,73.11,61.01-10.19,76.22c45.05-6.43,86.71-15.86,130.26-26.18,26.03-6.17,51.52-19.64,78.55-20.27l139.1,12.48,30.55,38.38-138.65,25.34-153.47,10.22-60.35-32.26c-13.39-7.15-26.15-7.58-41.68,2.7Z"/>
      <path class="st2" d="M543.15,756.33l-68.46,103.31c-2.9,4.48-5.37,8.18-4.76,12.97l-39.14,8.85-54.2,72.25-21.7-1.7,51.96-74.02,15.21-23.35-24.94-8.88-64.99,88.35-12.93-17.56,65.66-104.26c-12.64-.9-23.32.26-34.21,3.14-15.15,28.73-28.72,56.01-45.63,83.65-3.47-5.68-6.32-9.45-10.81-13.25,12.45-35.49,28.42-73.13,50.48-105.37l-30.78,2.19-29.58,66.74-10.08-13.31c9.04-27.73,20.39-53.87,31.75-80.61l43.8-18.46,68.32-28.08c35.7.81,69.77,5.41,105.46,9.88,7.7,12.45,14.28,24.27,19.58,37.54Z"/>
      <path class="st2" d="M2102.83,1138.95l-207.85,135.06c-2.03,1.31-2.02,3.45-.98,4.91-7.94,1-14.44-.98-22.07-5-96.77-51.01-185.94-114.62-267.42-187.55-1.09-.97-1.66-1.4-2-1.54-1.64-.6-1.03-2.75.79-2.34.8,1.24,1.69,1.67,1.72,1.52,32.03,15.33,64.57,27.68,99.93,37.53l178.95,41.03,218.93-23.62Z"/>
      <path class="st2" d="M625.96,683.59l-36.9,101.86-16.9-49.1c-23.55-17.55-46.59-34.4-72.16-48.84l-61.18,4.18,99.46-63.63,77.1-33.3,67.3,55.55,8.39,38.3-31.32-34.54-91.46-5.66,57.67,35.17Z"/>
      <path class="st0" d="M1693.1,1850.29l-122.27-38.17-106.26-160.18-81.52-121.75c99.54,90.05,189.39,184.9,278.05,282.56l32,37.53Z"/>
      <path class="st0" d="M922.14,1182.45l-101.74-3.24-10.15-26.24,305.21,2.6c9.45,4.22,15.83,10.93,24.92,18.05l-12.17-76.15,53.66,99.22-41.1-9.43-208.88-5.03-9.74.21Z"/>
      <path class="st0" d="M1766.28,1519.42l-138.79-60.5-67.61-30.63-135.19-51.7,77.04-12.27c13.99-2.23,23.39-17.31,35.75-24.2l19.12,36.04,162.18,107.2,48.96,34.17,1.05.9,2.82,1.31,1.92,1.8c-1.09-1.61-2.69,0-1.08,1.08l-1.81-1.89-3.47-.76-.88-.54Z"/>
      <polygon class="st0" points="1494.71 1343.17 1410.79 1351.71 1327.11 1335.2 1531.17 1256.27 1563.12 1303.07 1494.71 1343.17"/>
      <path class="st0" d="M1380.41,1478.18l-49.45-34.84-216.28-98.14-58.06-82.91,92.92,56.59,95.94,60.03,72.5,46.59,1.89-2.09c-3-10.1-12.12-17.17-13.58-30.49l64.01,69.06c4.89,5.27,9.73,10.12,11.99,16.06.11.3.95,1.05,2.94,1.1-3.83-2.55-6.41.6-1.38,2.61-2.99-1.89-3.45-3.19-3.47-3.58ZM1320.96,1424.07l-2.23,2.1,1.3,1.77,1.86-2.34-.93-1.53ZM1322.87,1426.53l-2.42,1.88c1.32,2.44,4.49.28,2.42-1.88Z"/>
      <polygon class="st2" points="200.79 555.89 344.05 721.97 318.26 727.83 129.66 511.74 169.59 518.9 200.79 555.89"/>
      <path class="st2" d="M948.09,881.01c17.38-41.31,39.9-78.57,63.7-116.02l47.82-68.68,120.25-93.72-56.39,68.15-111.69,131.99-63.69,78.27Z"/>
      <polygon class="st0" points="1483.29 1214.54 1364.14 1256.95 1483.67 1125.48 1510.69 1203.14 1483.29 1214.54"/>
      <path class="st2" d="M1114.82,482.19c8.58,24.07,16.99,48.32,22.76,74.55l-73.26-78.77-29.21-97.99,86.1,80.53,24.04-11.83-2.16,31.54,14.56,14.35c-16.47-2.16-30.97-13.9-39.89-14.44l-2.94,2.06ZM1116.47,479.23c-.88-2.49-3.98-1.36-3.31,1.04l3.31-1.04Z"/>
      <path class="st0" d="M1527.97,1140.48l16.15-50.02c1.77-5.49-4.9-10.7-7.85-14.09l-17.06-19.62,7.08-76.2,43.6,85.52c6.56,12.86,5.37,33.76,3.5,48.07l-20.39,50.3-25.03-23.96Z"/>
      <path class="st0" d="M469.93,872.61c-.61-4.8,1.87-8.5,4.76-12.97l68.46-103.31c1.8,4.5,6.83,10.37,5.51,16.09l-12.33,53.08,22.61,45.08c-6.06,14.64-12.34,27.3-21.63,41.65-4.21-12.31-4.96-22.93-4.47-35.62-5.13-3.66-11.29-9.25-17.26-8.64l-45.65,4.65Z"/>
      <path class="st2" d="M483.54,929.7c-28.7,19.98-56.26,38.17-86.14,54.46-5.34,16.66-9.4,32.6-21.45,46.33-4.13-20.59-3.02-38.79-2.76-57.5l96.9-68.21,35.69,6.22c4.6.8,8.45,8.03,10.95,11.49l-33.19,7.21Z"/>
      <path class="st2" d="M1018.85,705.82l-30.84,29.37c.36-73.07,7.44-144.31,23.87-214.08l4.22,117.84,2.75,66.86Z"/>
      <path class="st2" d="M1665.9,1245.84l-41.28-32.08-45.88-49.19,31.55-29.2,57.51,107.25c.5.93.83,1.78,1.01,1.81,3.14,3.45-1.18,2.58-.93,3.36-.84-1.54-1.81-1.82-1.98-1.95Z"/>
      <path class="st0" d="M1380.9,483.01l-100.29,85.83,81.13-117.91c6.47-1.01,11.5-.95,17.39-.14l1.77,32.23Z"/>
      <polygon class="st2" points="1081.51 604.55 1046.77 641.87 1050.1 520.62 1081.51 604.55"/>
      <polygon class="st0" points="737.77 791.72 623.7 858.9 685.85 789.27 737.77 791.72"/>
      <polygon class="st2" points="197.46 725.33 204.5 678.64 247.05 671.65 229.07 700.19 197.46 725.33"/>
      <polygon class="st2" points="248.43 780.97 254.02 734.95 295.28 728.11 276.63 757.74 248.43 780.97"/>
      <polygon class="st2" points="179.13 645.42 150.49 667.5 157.19 623.48 197.48 615.75 179.13 645.42"/>
      <path class="st0" d="M422.74,1038.58c1.5,8.34-5.66,16.32-7.74,24.48l-17.24-29.55,14.32-11.73,10.66,16.79Z"/>
      <path class="st2" d="M979.04,936.28c18.35-16.19,40.29-29.26,64.68-39.4-20.14,14.26-39.07,28.81-64.68,39.4Z"/>
      <path class="st0" d="M1300.59,1388.62c-2.21-.69-1.51-4.29.95-3.22-.37,2.4.85,3.14,1.08,3.36,1.1-.57,2.48-.13,3,.99s.08,2.34-1,3c-.94.57-3.08.24-2.97-2.01.06-1.29-.61-1.83-1.06-2.12Z"/>
      <path class="st2" d="M759.96,643.9l-38.69-44.17c-5.51-6.3-12.32-8.44-19.04-12.08-1.49,3.7-5.18,8.08-8.39,6.99l-79.99-27.05-72.24,49.94,28.63-65.86c44.09-20.57,89.89-36.75,129.3-64.96l46.79-52.95,30.33-21.99c23.05-16.71,46.19-31.83,68.13-49.33l89.66-10.82,16.23,27.18-62.02,12.5,24.32,37.31-13.47,111.86,57.64-107.97,12.75-5.64-15.69,61.07c-15.3,59.56-27.03,177.42-23.79,240.75l4.73,92.34c-20.21-61.33-36.37-122.43-48.83-186.64-14.36-73.93-29.74-145.9-54.55-217.6-5.53,47.21-6.26,90-7.89,135.17-17.54-28.69-30.74-56.88-51.17-83.56l20.27,113.87c-24.62-23.8-51.04-47.23-80.03-67.58l27.61,73,21.18,55.01c.29.96.72,1.29,1.22,1.51,1.35.94.98,2.67-.54,3.08l-2.45-3.38ZM772.63,466.73l-1,1,1,1,1-1-1-1Z"/>
      <rect class="st0" x="1387.92" y="1483.02" width="1.41" height="1.41" transform="translate(-642.4347 1416.4851) rotate(-45)"/>
      <rect class="st2" x="945.92" y="883.02" width="1.41" height="1.41" transform="translate(-347.63 928.21) rotate(-45)"/>
      <path class="st0" d="M1379.75,1527.93c1.08,1.6,2.67,0,1.08-1.08l2.68,2.68c-1.08-1.6-2.67,0-1.08,1.08l-2.68-2.68Z"/>
      <rect class="st0" x="1803.92" y="1597.02" width="1.41" height="1.41" transform="translate(-601.2013 1744.0314) rotate(-45)"/>
      <path class="st0" d="M1848.12,1711.52l-212.38-134.52-45.39-29.46-255.98-174.54c25.87,7.08,48.04,17.16,71.41,27.9l127.17,58.47c32.53,14.96,63.56,30.08,92.31,52.11,79.76,61.13,153.74,127.81,224.4,198.13l1.15.88c1.96.52,1.18,3.11-.88,2.36-.64-1.22-1.55-1.52-1.81-1.34Z"/>
      <path class="st0" d="M2178.08,1925.98l-156.35-58.11-215.41-268.82c74.24,51.7,139.86,108.54,206.5,166.29l102.21,95.98,64.7,62.38c.27.19.82.51,1.63,1.62-.12-.81.14,3.06-2.32.85-.08-.28-.32-.69-.96-.18Z"/>
      <path class="st2" d="M445.83,1006.91l9.6-22.62c2.68-6.32,9.5-10.41,14.43-15.15l19.51-18.75c3.69-3.55,5.28-7.96,4.58-14.42l29.51.79,14.1,11.99-77.29,44.44-14.45,13.72Z"/>
      <rect class="st0" x="1125.92" y="1095.02" width="1.41" height="1.41" transform="translate(-444.8153 1117.5806) rotate(-45)"/>
      <rect class="st0" x="1337.92" y="807.02" width="1.41" height="1.41" transform="translate(-179.0752 1183.134) rotate(-45)"/>
      <rect class="st1" x="771.92" y="467.02" width="1.41" height="1.41" transform="translate(-104.44 683.33) rotate(-45)"/>
      <rect class="st1" x="1141.92" y="865.02" width="1.41" height="1.41" transform="translate(-277.4945 1061.5289) rotate(-45)"/>
      <g>
        <path class="st0" d="M1348.58,83.11c-1.28,4.3,2.25,5.71,4.6,7.99l40.92,39.69,258.49,272.17c-42.78,10.39-82.61,13.24-123.24,13.69l-73.76.82c-149.4-13.21-295.76-45.15-440.65-89.94l76.41-113.25L1237.73.73c6.73-2.52,11.95,1.95,17.4,6.48l15.09,12.57c27.82,20.08,53.42,41.69,78.36,63.33Z"/>
        <path class="st2" d="M1237.73.73l-146.39,213.54-76.41,113.25c144.9,44.79,291.25,76.73,440.65,89.94l73.76-.82c40.63-.45,80.46-3.29,123.24-13.69l-258.49-272.17-40.92-39.69c-2.35-2.28-5.88-3.69-4.6-7.99l79.9,69.14,266.69,233.37-48.4,23.43c-89.73,15.89-180.15,16.06-271.16,6.22-114.43-12.37-225.6-36.77-336.01-68.47-67.08-21.99-131.2-46.84-194.15-77.98-35.58-17.6-67.96-37.48-99.49-64.63l279.74-119.11,176.74-71.14,35.3-13.21Z"/>
      </g>
    </g>
    <path class="st0" d="M3541.74,3368.62l-124.53-75.55-153.03-99.2-563.38-378.27c-167.33-117.2-329.98-239.39-490.85-365.07l-333-271-198.8-169.56c-199.49-170.15-391.77-346.98-583.37-526.19l-232.48-217.45-125.71-118.74c.96-2.78,2.61-3.04,3.98-2.22l16.37,9.76c6.22,3.71,9.2,6.48,10.91,13.76s15.91,9.71,19.81,15.7c5.89,9.04,15.12,14.48,21.6,22.28,7.61,9.16,16.96,18.95,27.57,21.17,3.13.89,8.57,6.18,10.69,8.65l10.01,11.64,9.03,12.97c4.56,6.54,10.62,5.27,16.01,8.74,9.45,6.08,17.67,16,25.02,24.5,4.66,5.39,5.42,12.58,12.66,15.54,16.95,6.93,27.94,21.35,39.08,34.81,14.15,17.09,38.26,17.35,65.02,55.22l15.53,10.3,15.15,12.94c8.55,9.68,15.48,20.76,28.45,25.79,4.99,9.48,13.76,15.49,24.09,20.11,4.98,12.16,15.37,19.73,25.3,28.16,11.12,7.29,18.28,17.91,27.97,25.99l22.01,18.36c8.85,7.38,16.2,19.02,25.99,25.35,12.46,8.05,19.98,18.29,30.68,27.48l25.95,22.3c12.24,8,19.74,19.97,28.58,31.38,16.55,8.74,30.45,19.67,41.32,34.9,5.34,7.48,15.64,9.81,21.86,15.89l15.14,14.8c4.67,4.56,8.37,8.69,13.24,13.03l22.03,19.58,13.24,10.68c11.51,13.36,24.4,22.06,37.63,32.78l19.3,22.57c4.24,4.96,9.59,5.49,14.9,9.67l18.72,14.69,17,12.9c7.12,5.4,9.8,14.87,21.41,24.45l15.37,12.69c17.83,10.65,32.81,22.45,45,39.35,6.72,9.31,18.64,13.54,26.95,20.84l16.12,14.17,17.98,17.65c14.74,8.42,25.12,19.63,40.15,31.47l13.85,10.91,42.95,38.98,17.63,16.19,24.88,23.17c12.63,11.76,24.92,21.15,38.01,31.79l22.1,17.97,26.94,23.3,32.03,22.16,34.64,32.99,44.13,31.85,15.17,15.14,16.81,13.01c7.89,6.1,15.66,14.95,24.44,18.94,6.55,2.98,8.95,7.28,13.41,10.86l42.47,34,17.94,11.85,23.72,22.24,27.96,24.09,45.55,34.82,14.53,9.24,24.02,21.77,14.37,12,14.43,11.02,30.2,22.26,27.09,20.94c7.73,5.97,14.19,12.28,23.53,16.55l8.69,8.76c9.91,3.56,16.09,10.6,23.63,16.24l23.04,17.23,19.97,16.32,18.54,13.53c6.66,9.14,18.23,13.76,26.94,20.71l30.15,24.06,34.92,21.34,18.52,12.87c7.59,5.28,12.42,10.12,19.82,15.14l27.06,18.35,23.04,19.09,21.05,14.88,21.02,15.29c8.8,6.4,17.83,13.22,29.02,16.37,2.13,7.66,7.67,11.21,14.87,13.08l21.03,15.56,24.27,17.45c10.6,7.62,18.88,14.71,30.52,21.71l30.94,18.61,22.39,17.91c10.84,8.67,26.18,13.23,35.12,24.42,4.42,5.53,9.36,6.58,14.69,10.07l27.4,17.95,36.05,26.02,18.02,11.82,32.15,19.84,16.39,11.7,16.14,12.04,14.91,11.01,18.98,12.76,18.26,11.94,31.26,20.35,19.09,11.6,15.24,12.11c12.55,5.96,21.66,11.19,31.19,21.64l18.11,11.71c7.89.97,13.6,4.27,16.34,11.68,18.26,4.85,29.2,22.11,43.5,28.63,5.95,2.71,15.78,4.55,20.15,9.2,7.53,8.01,15.45,12.51,23.95,18.57,10,7.13,18.68,13.04,30.23,18.15l33.35,23.87,13.7,8.08c20.47,8.87,56.15,25.64,64.98,40.02l13.58,7.59c6.84,7.11,13.95,10.28,23.14,13.8,8.08,3.09,26.71,20.64,22.19,29.14Z"/>
    <path class="st2" d="M22.55,501.84l10.77,81.84c-8.32-4.66-13.75-11.34-20.53-17.57L0,479.11l102.8-48c12.9,12.92,24.31,25.22,38.1,36.38,2.07,1.68,2.19,2.62.87,4.75-1.25,2.02-2.71,4.18-5.44,4.01l-28.99-13.19-84.79,38.76Z"/>
    <polygon class="st2" points="133.52 589.79 103.66 612.82 110.92 568.96 151.36 561.81 133.52 589.79"/>
    <polygon class="st2" points="83.03 541.15 55.64 554.67 63.13 516.19 103.99 507.01 83.03 541.15"/>
    <rect class="st2" x="33.92" y="585.02" width="1.41" height="1.41" transform="translate(-404.03 196.04) rotate(-45)"/>
    <g>
      <path class="st2" d="M736.58,1147.6l125.71,118.74,232.48,217.45c191.6,179.21,383.88,356.04,583.37,526.19l198.8,169.56,333,271c160.87,125.68,323.52,247.87,490.85,365.07l563.38,378.27,153.03,99.2,124.53,75.55c.89,2.12,2.51,3.76,4.42,5.15-2.47,1.55-3.7,1.6-4.79,1.86-90.35-3.32-180.52-8.89-270.71-23.59l-111-18.09-17.38-1.24c-8.85-.63-19.02-9.02-28.44-7.14-8.92,1.78-13.25-2.27-21.13-4.06l-35.73-8.13-10.55-1.37c-9.92-1.29-19.71-1.03-30.02-4.11-5.38-1.61-7.83-5.62-12.8-7.13l-30.75-9.35-140.31-93.8-372.1-261.65-227.4-170.83c-151.1-117.2-297.48-238.75-443.61-362.26-236.12-199.57-463.89-406.6-687.57-619.79l-50.52-48.15-83.94-82.17-153.09-150.77-182.42-185.17-41.7-42.56-79.23-82.37,21.97-97.58c5.16.86,7.47,4.11,11.54,8.05l263.89,255.49,9.49,8.8,123.76,120.42c119.58,116.35,240.17,229.7,362.98,342.2,6.68,6.12,11.08,9.74,20.65,7.87,1.4,4.61,8.29,8.1,10.13,11.45,2.76,5,5.71,7.12,9.93,10.79l37.32,32.47,30.64,29.74c10.01,1.66,17.06,6.95,21.96,15.36,8.11,5.16,15.23,10.99,17.83,20.32,5.5-.99,8.99-1.22,13.79.94.59,26.2,26.7,15.2,37.63,25.81l9.06,8.79c3.39,3.29,4.01,8.81,6.67,14.02l-13.16.38c3.42,2.84,4.94,5.64,6.04,9.68.95,3.52,6.33,1.9,8.09,2.54l12.19,11.5c3.35,3.16,8.04,5.64,10.89,9.42,11.86-.41,17.88,9.92,20.25,18.99,17.68,4.25,27.91,23.71,49.21,41.32l25.27,20.89c6.62,5.47,15.8,8.71,21.7,16.65,9.33,9.58,18.58,19.3,31.94,23.17,2.9,11.42,10.65,19.65,22.93,17.26,3.57,8.4,13,10.91,19.87,14.13,4.78,21.09,28.07,26.67,34.17,22.54.93-.63-2.25-2.76-2.63-3.9-3.94-11.85-12.42-18.2-23.63-22.29-5.74-2.09-2.92-11.4-4.73-14.59l-8.92-15.71-23.4-24.74c-5.99-9.4-11.7-18-20.1-25.86l-8.51-15.68c-11.18-7.47-21.49-16.16-27.79-27.95-5.78-.17-9.83-4.09-12.28-7.62l-10.72-15.41c-7.03-5.96-15.09-14.68-23.27-18.7l-51.49-10.5c.06-2.15,1.49-5.72.25-8.06l-20.51-7.84-25.11-19.02-11.88-26.2,38.48-5.76c-19.19-14.46-13.49-31.37-27.01-34.93-5.33-1.4-7.55-4.5-11.27-7.29-15.3-11.46-27.18-24.61-35.36-42.42l-74.69-25.16c-1.63-.55-1.91-3.73-.38-4.27,1.05-.37,3.7-1.84,4.68-3.29-5.29-20.68-21.69-26.48-24.16-34.23-2.8-8.77-3.34-12.88-12.78-16.51-5.57-2.14-15.53-5.64-18.15-11.17l-10.3-21.78c-4.66-5.32-10.18-12.05-16.4-15.31-6.59-3.45-12.92-5.28-14.62-13.67-.98-4.83-7.03-7.34-8.94-10.52-11.26-18.71-23.45-17.26-26.52-30.2l-75.65-25.48-3.5-13.49c-12.44-3.63-19.51-14.33-20.35-27.13-.51-7.76-3.8-10.9-9.17-14.97-6.73-5.1-7.01-15.93-11.32-22.82-6.73-10.74-13.74-22.99-22.21-31.51l-41.64-14.8-14.94-22.51c-6.05-9.11-15.63-13.76-22.42-21.94l-23.59-28.46-9.43-13.93c-15.72-10.36-37.59-27.86-41.7-43.02-1.66-6.13-9.81-8.3-12.98-12.76l-7.49-10.56c-7.22-4.54-15.78-8.01-20.65-15.64-3.45-5.4-5.67-13.89-12.81-17.95-10.18-5.79-35.08-5.26-54.1-6.35l2.63-12.86c-8.21-.55-7.06-10.92-10.14-13.7-7.55-6.8-11.47-17.17-14.58-25.34-19.97-7.72-28.18-23.04-30.45-44.48-9.92-5.86-22.68-14.91-27.37-24.13l-55.7-7.27c2.7-5.13,6.67-7.83,6.14-11.69-.98-7.12-16.3-11.38-8.07-24.94-3.17-4.38-5.94-9.61-8.92-13.42l-6.97-8.93-26.89-15.7c-1.26-4.16-2.22-7.88-2.34-12.87-12.76-2.62-9.12-16.21-11.35-22.58l-39.28-41.26c-2.18-2.29-4.89-3.56-4.74-6.82l12.66-2.68,108.47,104.89ZM2217.94,2610.41l-73.61-176.29c-18.39,2.72-37.14-24.01-48.61-31.66l-20.28-13.53-55.62-4.58-1.36-10.23-21.09-13.17-13.78-12.08c-8.33-9.74-12.82-24.49-25.01-30.99l-29.95-15.96c-6.48-3.46-13.44-4.84-13.99-14.52l-121.42-22.45,161.19,137.05,261.81,211.54,1.73-3.12ZM2218.91,2612.24l-.91,3.27c2.03.09,2.71-2.33.91-3.27ZM2902.55,2977.06l-23.8-8.83-29.1-22.02c-8.87-6.71-17.69-11.99-27.15-18.52l-19.93-13.76-25.96-18.13c-12.7-8.87-26.42-15.42-37.63-26.67l-24.48-13.19c-6.18-3.33-8.19-8.42-15.84-10.69-9.85-2.92-15.99-13.86-24.48-18.92l-23.49-14c-5.42-7.78-9.38-12.81-18.01-17.23l-17.1-8.76-18.64-16.5c-14.31-6.52-29.74-17.21-40.92-27.87l-70.75-8.25c-3.17-12.45-14.93-16.26-26.36-17.84-4.83-5.26-5.03-14.89-7.96-20.24l-26.36-19.81-14.83-11.6c-4.02-3.15-12.1-5.63-14.2-11.12s-5.83-8.84-8.9-12.92c-4.12-5.47-5.87-6.36-12.87-7.02l-141.98-13.27c-2.25-.21-3.85.28-4.24,1.79-.23.86.52,1.59,2.25,2.91l172.3,131.61,159.96,118.28,230.34,167.43,161.91,112.47,102.18,29.92,314.66,93.32-99.97-66.45c-8.66-5.76-18.95-14.11-28.36-15.08-6.53-.67-6.14-1-12.21-4.79l-19.46-12.16c-4.67-2.92-11.73-3.14-15.73-8.14-6.36-7.94-16.39-10.77-24.09-16.01l-21.56-14.67-23.11-12.88c-3.97-2.21-5.23-5.78-9.82-8.47l-51.1-29.96c-6.22-3.64-7.89-7.06-13.68-10.83l-21.63-14.07c-4.65-3.02-10.01-7.05-13.07-10.38-7.71-1.57-13.25-6.92-19.58-10.85l-19.75-12.26c-10.29-6.39-19.35-11.45-28.67-19.83-10.69-9.6-25.35-13-33.19-20.56l-13.64-13.15Z"/>
      <path class="st0" d="M532.91,1094.33c.63-2.79,1.34-5.87,5.51-6.82l77.03-42.13c-.15,3.27,2.56,4.54,4.74,6.82l39.28,41.26c2.23,6.37-1.41,19.96,11.35,22.58.12,4.99,1.08,8.71,2.34,12.87l26.89,15.7,6.97,8.93c2.97,3.81,5.74,9.04,8.92,13.42-8.23,13.56,7.09,17.82,8.07,24.94.53,3.86-3.44,6.56-6.14,11.69l55.7,7.27c4.69,9.22,17.45,18.27,27.37,24.13,2.27,21.44,10.48,36.77,30.45,44.48,3.12,8.17,7.04,18.54,14.58,25.34,3.08,2.77,1.93,13.15,10.14,13.7l-2.63,12.86c19.02,1.09,43.92.56,54.1,6.35,7.14,4.06,9.36,12.55,12.81,17.95,4.88,7.63,13.43,11.1,20.65,15.64l7.49,10.56c3.17,4.47,11.32,6.64,12.98,12.76,4.1,15.16,25.97,32.66,41.7,43.02l9.43,13.93,23.59,28.46c6.78,8.18,16.37,12.83,22.42,21.94l14.94,22.51,41.64,14.8c8.47,8.52,15.48,20.77,22.21,31.51,4.32,6.89,4.6,17.72,11.32,22.82,5.37,4.07,8.66,7.2,9.17,14.97.84,12.81,7.91,23.5,20.35,27.13l3.5,13.49,75.65,25.48c3.07,12.94,15.26,11.49,26.52,30.2,1.91,3.18,7.96,5.69,8.94,10.52,1.71,8.39,8.03,10.22,14.62,13.67,6.23,3.26,11.74,9.99,16.4,15.31l10.3,21.78c2.61,5.53,12.57,9.03,18.15,11.17,9.44,3.63,9.98,7.74,12.78,16.51,2.47,7.75,18.87,13.55,24.16,34.23-.98,1.45-3.62,2.91-4.68,3.29-1.53.54-1.25,3.72.38,4.27l74.69,25.16c8.18,17.81,20.06,30.96,35.36,42.42,3.72,2.79,5.95,5.89,11.27,7.29,13.53,3.56,7.83,20.46,27.01,34.93l-38.48,5.76,11.88,26.2,25.11,19.02,20.51,7.84c1.24,2.35-.2,5.91-.25,8.06l51.49,10.5c8.18,4.02,16.24,12.74,23.27,18.7l10.72,15.41c2.45,3.53,6.5,7.45,12.28,7.62,6.31,11.79,16.61,20.48,27.79,27.95l8.51,15.68c8.4,7.85,14.11,16.46,20.1,25.86l23.4,24.74,8.92,15.71c1.82,3.2-1.01,12.5,4.73,14.59,11.2,4.09,19.69,10.44,23.63,22.29.38,1.14,3.57,3.27,2.63,3.9-6.1,4.13-29.39-1.45-34.17-22.54-6.87-3.22-16.29-5.73-19.87-14.13-12.28,2.39-20.03-5.85-22.93-17.26-13.36-3.87-22.61-13.58-31.94-23.17-5.9-7.94-15.08-11.18-21.7-16.65l-25.27-20.89c-21.3-17.6-31.53-37.07-49.21-41.32-2.37-9.07-8.39-19.4-20.25-18.99-2.86-3.78-7.55-6.26-10.89-9.42l-12.19-11.5c-1.76-.64-7.14.98-8.09-2.54-1.1-4.05-2.62-6.85-6.04-9.68l13.16-.38c-2.67-5.22-3.29-10.74-6.67-14.02l-9.06-8.79c-10.93-10.61-37.05.4-37.63-25.81-4.8-2.16-8.29-1.93-13.79-.94-2.59-9.33-9.72-15.15-17.83-20.32-4.89-8.41-11.95-13.7-21.96-15.36l-30.64-29.74-37.32-32.47c-4.22-3.67-7.17-5.79-9.93-10.79-1.85-3.35-8.74-6.84-10.13-11.45-9.58,1.87-13.98-1.75-20.65-7.87-122.81-112.51-243.4-225.85-362.98-342.2l-123.76-120.42-9.49-8.8-263.89-255.49c-4.07-3.94-6.37-7.19-11.54-8.05Z"/>
      <path class="st0" d="M2902.55,2977.06l13.64,13.15c7.84,7.56,22.5,10.96,33.19,20.56,9.32,8.38,18.38,13.44,28.67,19.83l19.75,12.26c6.33,3.93,11.87,9.28,19.58,10.85,3.07,3.33,8.43,7.36,13.07,10.38l21.63,14.07c5.79,3.77,7.46,7.19,13.68,10.83l51.1,29.96c4.59,2.69,5.85,6.26,9.82,8.47l23.11,12.88,21.56,14.67c7.71,5.24,17.74,8.07,24.09,16.01,4,5,11.06,5.22,15.73,8.14l19.46,12.16c6.07,3.79,5.68,4.12,12.21,4.79,9.41.97,19.7,9.32,28.36,15.08l99.97,66.45-314.66-93.32-102.18-29.92-161.91-112.47-230.34-167.43-159.96-118.28-172.3-131.61c-1.73-1.32-2.47-2.05-2.25-2.91.39-1.51,1.99-2,4.24-1.79l141.98,13.27c7.01.66,8.76,1.54,12.87,7.02,3.07,4.08,6.77,7.36,8.9,12.92s10.18,7.97,14.2,11.12l14.83,11.6,26.36,19.81c2.93,5.34,3.12,14.97,7.96,20.24,11.42,1.58,23.18,5.39,26.36,17.84l70.75,8.25c11.18,10.66,26.62,21.35,40.92,27.87l18.64,16.5,17.1,8.76c8.64,4.42,12.59,9.45,18.01,17.23l23.49,14c8.49,5.06,14.63,16.01,24.48,18.92,7.65,2.26,9.66,7.36,15.84,10.69l24.48,13.19c11.21,11.24,24.93,17.8,37.63,26.67l25.96,18.13,19.93,13.76c9.46,6.53,18.27,11.81,27.15,18.52l29.1,22.02,23.8,8.83Z"/>
      <path class="st0" d="M2216.21,2613.54l-261.81-211.54-161.19-137.05,121.42,22.45c.55,9.68,7.51,11.06,13.99,14.52l29.95,15.96c12.19,6.5,16.68,21.25,25.01,30.99l13.78,12.08,21.09,13.17,1.36,10.23,55.62,4.58,20.28,13.53c11.47,7.65,30.22,34.38,48.61,31.66l73.61,176.29.98,1.83c1.81.94,1.13,3.36-.91,3.27l-1.8-1.98Z"/>
    </g>
  </g>
</svg>