<svg id="my-svg" width="100%" xmlns="http://www.w3.org/2000/svg" xmlns:xlink="http://www.w3.org/1999/xlink" viewBox="0 0 784 1180" style="max-width: 784px; background-color: white;" role="graphics-document document" aria-roledescription="gantt"><style>#my-svg{font-family:"trebuchet ms",verdana,arial,sans-serif;font-size:16px;fill:#333;}@keyframes edge-animation-frame{from{stroke-dashoffset:0;}}@keyframes dash{to{stroke-dashoffset:0;}}#my-svg .edge-animation-slow{stroke-dasharray:9,5!important;stroke-dashoffset:900;animation:dash 50s linear infinite;stroke-linecap:round;}#my-svg .edge-animation-fast{stroke-dasharray:9,5!important;stroke-dashoffset:900;animation:dash 20s linear infinite;stroke-linecap:round;}#my-svg .error-icon{fill:hsl(220.5882352941, 100%, 98.3333333333%);}#my-svg .error-text{fill:rgb(8.5000000002, 5.7500000001, 0);stroke:rgb(8.5000000002, 5.7500000001, 0);}#my-svg .edge-thickness-normal{stroke-width:1px;}#my-svg .edge-thickness-thick{stroke-width:3.5px;}#my-svg .edge-pattern-solid{stroke-dasharray:0;}#my-svg .edge-thickness-invisible{stroke-width:0;fill:none;}#my-svg .edge-pattern-dashed{stroke-dasharray:3;}#my-svg .edge-pattern-dotted{stroke-dasharray:2;}#my-svg .marker{fill:#0b0b0b;stroke:#0b0b0b;}#my-svg .marker.cross{stroke:#0b0b0b;}#my-svg svg{font-family:"trebuchet ms",verdana,arial,sans-serif;font-size:16px;}#my-svg p{margin:0;}#my-svg .mermaid-main-font{font-family:"trebuchet ms",verdana,arial,sans-serif;}#my-svg .exclude-range{fill:#eeeeee;}#my-svg .section{stroke:none;opacity:0.2;}#my-svg .section0{fill:#161d2e;}#my-svg .section2{fill:#fff4dd;}#my-svg .section1,#my-svg .section3{fill:#1b2336;opacity:0.2;}#my-svg .sectionTitle0{fill:rgb(8.5000000002, 5.7500000001, 0);}#my-svg .sectionTitle1{fill:rgb(8.5000000002, 5.7500000001, 0);}#my-svg .sectionTitle2{fill:rgb(8.5000000002, 5.7500000001, 0);}#my-svg .sectionTitle3{fill:rgb(8.5000000002, 5.7500000001, 0);}#my-svg .sectionTitle{text-anchor:start;font-family:"trebuchet ms",verdana,arial,sans-serif;}#my-svg .grid .tick{stroke:#3a4a6b;opacity:0.8;shape-rendering:crispEdges;}#my-svg .grid .tick text{font-family:"trebuchet ms",verdana,arial,sans-serif;fill:#333;}#my-svg .grid path{stroke-width:0;}#my-svg .today{fill:none;stroke:#c9596b;stroke-width:2px;}#my-svg .task{stroke-width:2;}#my-svg .taskText{text-anchor:middle;font-family:"trebuchet ms",verdana,arial,sans-serif;}#my-svg .taskTextOutsideRight{fill:#333;text-anchor:start;font-family:"trebuchet ms",verdana,arial,sans-serif;}#my-svg .taskTextOutsideLeft{fill:#333;text-anchor:end;}#my-svg .task.clickable{cursor:pointer;}#my-svg .taskText.clickable{cursor:pointer;fill:#003163!important;font-weight:bold;}#my-svg .taskTextOutsideLeft.clickable{cursor:pointer;fill:#003163!important;font-weight:bold;}#my-svg .taskTextOutsideRight.clickable{cursor:pointer;fill:#003163!important;font-weight:bold;}#my-svg .taskText0,#my-svg .taskText1,#my-svg .taskText2,#my-svg .taskText3{fill:#0b1020;}#my-svg .task0,#my-svg .task1,#my-svg .task2,#my-svg .task3{fill:#fff4dd;stroke:hsl(40.5882352941, 60%, 83.3333333333%);}#my-svg .taskTextOutside0,#my-svg .taskTextOutside2{fill:#e8ecf4;}#my-svg .taskTextOutside1,#my-svg .taskTextOutside3{fill:#e8ecf4;}#my-svg .active0,#my-svg .active1,#my-svg .active2,#my-svg .active3{fill:#46b39d;stroke:#2f8473;}#my-svg .activeText0,#my-svg .activeText1,#my-svg .activeText2,#my-svg .activeText3{fill:#333!important;}#my-svg .done0,#my-svg .done1,#my-svg .done2,#my-svg .done3{stroke:#3a6bc4;fill:#5b8def;stroke-width:2;}#my-svg .doneText0,#my-svg .doneText1,#my-svg .doneText2,#my-svg .doneText3{fill:#333!important;}#my-svg .crit0,#my-svg .crit1,#my-svg .crit2,#my-svg .crit3{stroke:#b87f33;fill:#e0a458;stroke-width:2;}#my-svg .activeCrit0,#my-svg .activeCrit1,#my-svg .activeCrit2,#my-svg .activeCrit3{stroke:#b87f33;fill:#46b39d;stroke-width:2;}#my-svg .doneCrit0,#my-svg .doneCrit1,#my-svg .doneCrit2,#my-svg .doneCrit3{stroke:#b87f33;fill:#5b8def;stroke-width:2;cursor:pointer;shape-rendering:crispEdges;}#my-svg .milestone{transform:rotate(45deg) scale(0.8,0.8);}#my-svg .milestoneText{font-style:italic;}#my-svg .doneCritText0,#my-svg .doneCritText1,#my-svg .doneCritText2,#my-svg .doneCritText3{fill:#333!important;}#my-svg .vert{stroke:navy;}#my-svg .vertText{font-size:15px;text-anchor:middle;fill:navy!important;}#my-svg .activeCritText0,#my-svg .activeCritText1,#my-svg .activeCritText2,#my-svg .activeCritText3{fill:#333!important;}#my-svg .titleText{text-anchor:middle;font-size:18px;fill:rgb(8.5000000002, 5.7500000001, 0);font-family:"trebuchet ms",verdana,arial,sans-serif;}#my-svg :root{--mermaid-font-family:"trebuchet ms",verdana,arial,sans-serif;}</style><g/><g class="grid" transform="translate(75, 1130)" fill="none" font-size="10" font-family="sans-serif" text-anchor="middle"><path class="domain" stroke="currentColor" d="M0.5,-1095V0.5H634.5V-1095"/><g class="tick" opacity="1" transform="translate(36.5,0)"><line stroke="currentColor" y2="-1095"/><text fill="#000" y="3" dy="1em" stroke="none" font-size="10" style="text-anchor: middle;">03/08</text></g><g class="tick" opacity="1" transform="translate(78.5,0)"><line stroke="currentColor" y2="-1095"/><text fill="#000" y="3" dy="1em" stroke="none" font-size="10" style="text-anchor: middle;">03/15</text></g><g class="tick" opacity="1" transform="translate(121.5,0)"><line stroke="currentColor" y2="-1095"/><text fill="#000" y="3" dy="1em" stroke="none" font-size="10" style="text-anchor: middle;">03/22</text></g><g class="tick" opacity="1" transform="translate(163.5,0)"><line stroke="currentColor" y2="-1095"/><text fill="#000" y="3" dy="1em" stroke="none" font-size="10" style="text-anchor: middle;">03/29</text></g><g class="tick" opacity="1" transform="translate(205.5,0)"><line stroke="currentColor" y2="-1095"/><text fill="#000" y="3" dy="1em" stroke="none" font-size="10" style="text-anchor: middle;">04/05</text></g><g class="tick" opacity="1" transform="translate(248.5,0)"><line stroke="currentColor" y2="-1095"/><text fill="#000" y="3" dy="1em" stroke="none" font-size="10" style="text-anchor: middle;">04/12</text></g><g class="tick" opacity="1" transform="translate(290.5,0)"><line stroke="currentColor" y2="-1095"/><text fill="#000" y="3" dy="1em" stroke="none" font-size="10" style="text-anchor: middle;">04/19</text></g><g class="tick" opacity="1" transform="translate(332.5,0)"><line stroke="currentColor" y2="-1095"/><text fill="#000" y="3" dy="1em" stroke="none" font-size="10" style="text-anchor: middle;">04/26</text></g><g class="tick" opacity="1" transform="translate(374.5,0)"><line stroke="currentColor" y2="-1095"/><text fill="#000" y="3" dy="1em" stroke="none" font-size="10" style="text-anchor: middle;">05/03</text></g><g class="tick" opacity="1" transform="translate(417.5,0)"><line stroke="currentColor" y2="-1095"/><text fill="#000" y="3" dy="1em" stroke="none" font-size="10" style="text-anchor: middle;">05/10</text></g><g class="tick" opacity="1" transform="translate(459.5,0)"><line stroke="currentColor" y2="-1095"/><text fill="#000" y="3" dy="1em" stroke="none" font-size="10" style="text-anchor: middle;">05/17</text></g><g class="tick" opacity="1" transform="translate(501.5,0)"><line stroke="currentColor" y2="-1095"/><text fill="#000" y="3" dy="1em" stroke="none" font-size="10" style="text-anchor: middle;">05/24</text></g><g class="tick" opacity="1" transform="translate(543.5,0)"><line stroke="currentColor" y2="-1095"/><text fill="#000" y="3" dy="1em" stroke="none" font-size="10" style="text-anchor: middle;">05/31</text></g><g class="tick" opacity="1" transform="translate(586.5,0)"><line stroke="currentColor" y2="-1095"/><text fill="#000" y="3" dy="1em" stroke="none" font-size="10" style="text-anchor: middle;">06/07</text></g><g class="tick" opacity="1" transform="translate(628.5,0)"><line stroke="currentColor" y2="-1095"/><text fill="#000" y="3" dy="1em" stroke="none" font-size="10" style="text-anchor: middle;">06/14</text></g></g><g><rect x="0" y="984" width="746.5" height="24" class="section section2"/><rect x="0" y="168" width="746.5" height="24" class="section section1"/><rect x="0" y="1104" width="746.5" height="24" class="section section3"/><rect x="0" y="744" width="746.5" height="24" class="section section1"/><rect x="0" y="480" width="746.5" height="24" class="section section2"/><rect x="0" y="648" width="746.5" height="24" class="section section0"/><rect x="0" y="552" width="746.5" height="24" class="section section2"/><rect x="0" y="48" width="746.5" height="24" class="section section0"/><rect x="0" y="576" width="746.5" height="24" class="section section3"/><rect x="0" y="672" width="746.5" height="24" class="section section1"/><rect x="0" y="600" width="746.5" height="24" class="section section3"/><rect x="0" y="624" width="746.5" height="24" class="section section3"/><rect x="0" y="216" width="746.5" height="24" class="section section1"/><rect x="0" y="192" width="746.5" height="24" class="section section1"/><rect x="0" y="72" width="746.5" height="24" class="section section0"/><rect x="0" y="96" width="746.5" height="24" class="section section0"/><rect x="0" y="336" width="746.5" height="24" class="section section1"/><rect x="0" y="240" width="746.5" height="24" class="section section1"/><rect x="0" y="264" width="746.5" height="24" class="section section1"/><rect x="0" y="288" width="746.5" height="24" class="section section1"/><rect x="0" y="384" width="746.5" height="24" class="section section1"/><rect x="0" y="312" width="746.5" height="24" class="section section1"/><rect x="0" y="360" width="746.5" height="24" class="section section1"/><rect x="0" y="408" width="746.5" height="24" class="section section1"/><rect x="0" y="936" width="746.5" height="24" class="section section1"/><rect x="0" y="912" width="746.5" height="24" class="section section1"/><rect x="0" y="1008" width="746.5" height="24" class="section section2"/><rect x="0" y="456" width="746.5" height="24" class="section section2"/><rect x="0" y="504" width="746.5" height="24" class="section section2"/><rect x="0" y="528" width="746.5" height="24" class="section section2"/><rect x="0" y="1032" width="746.5" height="24" class="section section2"/><rect x="0" y="1056" width="746.5" height="24" class="section section2"/><rect x="0" y="1080" width="746.5" height="24" class="section section2"/><rect x="0" y="144" width="746.5" height="24" class="section section0"/><rect x="0" y="696" width="746.5" height="24" class="section section1"/><rect x="0" y="120" width="746.5" height="24" class="section section0"/><rect x="0" y="720" width="746.5" height="24" class="section section1"/><rect x="0" y="768" width="746.5" height="24" class="section section1"/><rect x="0" y="792" width="746.5" height="24" class="section section1"/><rect x="0" y="840" width="746.5" height="24" class="section section1"/><rect x="0" y="864" width="746.5" height="24" class="section section1"/><rect x="0" y="888" width="746.5" height="24" class="section section1"/><rect x="0" y="960" width="746.5" height="24" class="section section1"/><rect x="0" y="432" width="746.5" height="24" class="section section1"/><rect x="0" y="816" width="746.5" height="24" class="section section1"/></g><g><rect id="task40" rx="3" ry="3" x="75" y="986" width="634" height="20" transform-origin="392px 996px" class="task done2"/><rect id="task6" rx="3" ry="3" x="93" y="170" width="610" height="20" transform-origin="398px 180px" class="task done1"/><rect id="task45" rx="3" ry="3" x="202" y="1106" width="507" height="20" transform-origin="455.5px 1116px" class="task done3"/><rect id="task30" rx="3" ry="3" x="226" y="746" width="483" height="20" transform-origin="467.5px 756px" class="task done1"/><rect id="task19" rx="3" ry="3" x="250" y="482" width="459" height="20" transform-origin="479.5px 492px" class="task done2"/><rect id="task26" rx="3" ry="3" x="250" y="650" width="459" height="20" transform-origin="479.5px 660px" class="task done0"/><rect id="task22" rx="3" ry="3" x="268" y="554" width="393" height="20" transform-origin="464.5px 564px" class="task active2"/><rect id="task1" rx="3" ry="3" x="335" y="50" width="374" height="20" transform-origin="522px 60px" class="task done0"/><rect id="task23" rx="3" ry="3" x="401" y="578" width="308" height="20" transform-origin="555px 588px" class="task done3"/><rect id="task27" rx="3" ry="3" x="449" y="674" width="260" height="20" transform-origin="579px 684px" class="task done1"/><rect id="task24" rx="3" ry="3" x="455" y="602" width="254" height="20" transform-origin="582px 612px" class="task done3"/><rect id="task25" rx="3" ry="3" x="461" y="626" width="248" height="20" transform-origin="585px 636px" class="task active3"/><rect id="task8" rx="3" ry="3" x="498" y="218" width="211" height="20" transform-origin="603.5px 228px" class="task done1"/><rect id="task7" rx="3" ry="3" x="504" y="194" width="169" height="20" transform-origin="588.5px 204px" class="task done1"/><rect id="task2" rx="3" ry="3" x="516" y="74" width="193" height="20" transform-origin="612.5px 84px" class="task active0"/><rect id="task3" rx="3" ry="3" x="558" y="98" width="145" height="20" transform-origin="630.5px 108px" class="task active0"/><rect id="task13" rx="3" ry="3" x="558" y="338" width="145" height="20" transform-origin="630.5px 348px" class="task active1"/><rect id="task9" rx="3" ry="3" x="564" y="242" width="139" height="20" transform-origin="633.5px 252px" class="task active1"/><rect id="task10" rx="3" ry="3" x="564" y="266" width="145" height="20" transform-origin="636.5px 276px" class="task done1"/><rect id="task11" rx="3" ry="3" x="564" y="290" width="145" height="20" transform-origin="636.5px 300px" class="task active1"/><rect id="task15" rx="3" ry="3" x="564" y="386" width="139" height="20" transform-origin="633.5px 396px" class="task active1"/><rect id="task12" rx="3" ry="3" x="582" y="314" width="127" height="20" transform-origin="645.5px 324px" class="task done1"/><rect id="task14" rx="3" ry="3" x="582" y="362" width="121" height="20" transform-origin="642.5px 372px" class="task crit1"/><rect id="task16" rx="3" ry="3" x="582" y="410" width="127" height="20" transform-origin="645.5px 420px" class="task done1"/><rect id="task38" rx="3" ry="3" x="588" y="938" width="109" height="20" transform-origin="642.5px 948px" class="task active1"/><rect id="task37" rx="3" ry="3" x="606" y="914" width="103" height="20" transform-origin="657.5px 924px" class="task active1"/><rect id="task41" rx="3" ry="3" x="637" y="1010" width="72" height="20" transform-origin="673px 1020px" class="task done2"/><rect id="task18" rx="3" ry="3" x="643" y="458" width="66" height="20" transform-origin="676px 468px" class="task done2"/><rect id="task20" rx="3" ry="3" x="643" y="506" width="66" height="20" transform-origin="676px 516px" class="task active2"/><rect id="task21" rx="3" ry="3" x="643" y="530" width="66" height="20" transform-origin="676px 540px" class="task crit2"/><rect id="task42" rx="3" ry="3" x="643" y="1034" width="66" height="20" transform-origin="676px 1044px" class="task done2"/><rect id="task43" rx="3" ry="3" x="643" y="1058" width="66" height="20" transform-origin="676px 1068px" class="task active2"/><rect id="task44" rx="3" ry="3" x="649" y="1082" width="60" height="20" transform-origin="679px 1092px" class="task done2"/><rect id="task5" rx="3" ry="3" x="661" y="146" width="0" height="20" transform-origin="661px 156px" class="task crit0"/><rect id="task28" rx="3" ry="3" x="679" y="698" width="30" height="20" transform-origin="694px 708px" class="task done1"/><rect id="task4" rx="3" ry="3" x="691" y="122" width="0" height="20" transform-origin="691px 132px" class="task crit0"/><rect id="task29" rx="3" ry="3" x="691" y="722" width="12" height="20" transform-origin="697px 732px" class="task crit1"/><rect id="task31" rx="3" ry="3" x="697" y="770" width="0" height="20" transform-origin="697px 780px" class="task crit1"/><rect id="task32" rx="3" ry="3" x="697" y="794" width="0" height="20" transform-origin="697px 804px" class="task crit1"/><rect id="task34" rx="3" ry="3" x="697" y="842" width="0" height="20" transform-origin="697px 852px" class="task crit1"/><rect id="task35" rx="3" ry="3" x="697" y="866" width="0" height="20" transform-origin="697px 876px" class="task crit1"/><rect id="task36" rx="3" ry="3" x="697" y="890" width="0" height="20" transform-origin="697px 900px" class="task crit1"/><rect id="task39" rx="3" ry="3" x="697" y="962" width="12" height="20" transform-origin="703px 972px" class="task active1"/><rect id="task17" rx="3" ry="3" x="703" y="434" width="6" height="20" transform-origin="706px 444px" class="task crit1"/><rect id="task33" rx="3" ry="3" x="709" y="818" width="0" height="20" transform-origin="709px 828px" class="task crit1"/><text id="task40-text" font-size="11" x="392" y="999.5" class="taskText taskText2  doneText2 width-77.375">usnjrnl-forensic       </text><text id="task6-text" font-size="11" x="398" y="183.5" class="taskText taskText1  doneText1 width-18.3046875">ewf                    </text><text id="task45-text" font-size="11" x="455.5" y="1119.5" class="taskText taskText3  doneText3 width-24.0625">issen                  </text><text id="task30-text" font-size="11" x="467.5" y="759.5" class="taskText taskText1  doneText1 width-76.46875">winreg-forensic        </text><text id="task19-text" font-size="11" x="479.5" y="495.5" class="taskText taskText2  doneText2 width-73.5">ext4fs-forensic        </text><text id="task26-text" font-size="11" x="479.5" y="663.5" class="taskText taskText0  doneText0 width-83.203125">memory-forensic        </text><text id="task22-text" font-size="11" x="464.5" y="567.5" class="taskText taskText2 activeText2 width-48.96875">4n6mount               </text><text id="task1-text" font-size="11" x="522" y="63.5" class="taskText taskText0  doneText0 width-80.84375">forensicnomicon        </text><text id="task23-text" font-size="11" x="555" y="591.5" class="taskText taskText3  doneText3 width-76.421875">winevt-forensic        </text><text id="task27-text" font-size="11" x="579" y="687.5" class="taskText taskText1  doneText1 width-82.5625">browser-forensic       </text><text id="task24-text" font-size="11" x="582" y="615.5" class="taskText taskText3  doneText3 width-67.203125">srum-forensic          </text><text id="task25-text" font-size="11" x="585" y="639.5" class="taskText taskText3 activeText3 width-84.71875">journald-forensic      </text><text id="task8-text" font-size="11" x="603.5" y="231.5" class="taskText taskText1  doneText1 width-66.375">vhdx-forensic          </text><text id="task7-text" font-size="11" x="588.5" y="207.5" class="taskText taskText1  doneText1 width-61.59375">ewf-forensic           </text><text id="task2-text" font-size="11" x="612.5" y="87.5" class="taskText taskText0 activeText0 width-105.890625">state-history-forensic </text><text id="task3-text" font-size="11" x="630.5" y="111.5" class="taskText taskText0 activeText0 width-48.125">jsonguard              </text><text id="task13-text" font-size="11" x="630.5" y="351.5" class="taskText taskText1 activeText1 width-12.265625">dd                     </text><text id="task9-text" font-size="11" x="633.5" y="255.5" class="taskText taskText1 activeText1 width-17.53125">vhd                    </text><text id="task10-text" font-size="11" x="636.5" y="279.5" class="taskText taskText1  doneText1 width-69.53125">vmdk-forensic          </text><text id="task11-text" font-size="11" x="636.5" y="303.5" class="taskText taskText1 activeText1 width-74.765625">qcow2-forensic         </text><text id="task15-text" font-size="11" x="633.5" y="399.5" class="taskText taskText1 activeText1 width-19.6875">aff4                   </text><text id="task12-text" font-size="11" x="645.5" y="327.5" class="taskText taskText1  doneText1 width-79.90625">iso9660-forensic       </text><text id="task14-text" font-size="11" x="642.5" y="375.5" class="taskText taskText1  critText1 width-20.78125">dmg                    </text><text id="task16-text" font-size="11" x="645.5" y="423.5" class="taskText taskText1  doneText1 width-59.515625">dar-forensic           </text><text id="task38-text" font-size="11" x="642.5" y="951.5" class="taskText taskText1 activeText1 width-56.359375">git-forensic           </text><text id="task37-text" font-size="11" x="657.5" y="927.5" class="taskText taskText1 activeText1 width-82.453125">exec-pe-forensic       </text><text id="task41-text" font-size="11" x="632" y="1023.5" class="taskTextOutsideLeft taskTextOutside2  doneText2">mbr-partition-forensic </text><text id="task18-text" font-size="11" x="676" y="471.5" class="taskText taskText2  doneText2 width-62.21875">ntfs-forensic          </text><text id="task20-text" font-size="11" x="638" y="519.5" class="taskTextOutsideLeft taskTextOutside2 activeText2">hfsplus-forensic       </text><text id="task21-text" font-size="11" x="676" y="543.5" class="taskText taskText2  critText2 width-59.546875">udf-forensic           </text><text id="task42-text" font-size="11" x="638" y="1047.5" class="taskTextOutsideLeft taskTextOutside2  doneText2">gpt-partition-forensic </text><text id="task43-text" font-size="11" x="638" y="1071.5" class="taskTextOutsideLeft taskTextOutside2 activeText2">apm-partition-forensic </text><text id="task44-text" font-size="11" x="644" y="1095.5" class="taskTextOutsideLeft taskTextOutside2  doneText2">disk-forensic          </text><text id="task5-text" font-size="11" x="666" y="159.5" class="taskTextOutsideRight taskTextOutside0  critText0 width-14.375">lzo                    </text><text id="task28-text" font-size="11" x="674" y="711.5" class="taskTextOutsideLeft taskTextOutside1  doneText1">sqlite-forensic        </text><text id="task4-text" font-size="11" x="686" y="135.5" class="taskTextOutsideLeft taskTextOutside0  critText0">xpress-huffman         </text><text id="task29-text" font-size="11" x="686" y="735.5" class="taskTextOutsideLeft taskTextOutside1  critText1">prefetch-forensic      </text><text id="task31-text" font-size="11" x="692" y="783.5" class="taskTextOutsideLeft taskTextOutside1  critText1">lnk-forensic           </text><text id="task32-text" font-size="11" x="692" y="807.5" class="taskTextOutsideLeft taskTextOutside1  critText1">cfb-forensic           </text><text id="task34-text" font-size="11" x="702" y="855.5" class="taskTextOutsideRight taskTextOutside1  critText1 width-45.59375">shellitem              </text><text id="task35-text" font-size="11" x="692" y="879.5" class="taskTextOutsideLeft taskTextOutside1  critText1">shellhist-forensic     </text><text id="task36-text" font-size="11" x="692" y="903.5" class="taskTextOutsideLeft taskTextOutside1  critText1">peripheral-forensic    </text><text id="task39-text" font-size="11" x="692" y="975.5" class="taskTextOutsideLeft taskTextOutside1 activeText1">useract-forensic       </text><text id="task17-text" font-size="11" x="698" y="447.5" class="taskTextOutsideLeft taskTextOutside1  critText1">segb-forensic          </text><text id="task33-text" font-size="11" x="704" y="831.5" class="taskTextOutsideLeft taskTextOutside1  critText1">snss-forensic          </text></g><g><text dy="0em" x="10" y="110" font-size="11" class="sectionTitle sectionTitle0"><tspan alignment-baseline="central" x="10">KNOWLEDGE</tspan></text><text dy="0em" x="10" y="314" font-size="11" class="sectionTitle sectionTitle1"><tspan alignment-baseline="central" x="10">CONTAINER</tspan></text><text dy="0em" x="10" y="518" font-size="11" class="sectionTitle sectionTitle2"><tspan alignment-baseline="central" x="10">FILESYSTEM</tspan></text><text dy="0em" x="10" y="614" font-size="11" class="sectionTitle sectionTitle3"><tspan alignment-baseline="central" x="10">LOG</tspan></text><text dy="0em" x="10" y="662" font-size="11" class="sectionTitle sectionTitle0"><tspan alignment-baseline="central" x="10">MEMORY</tspan></text><text dy="0em" x="10" y="830" font-size="11" class="sectionTitle sectionTitle1"><tspan alignment-baseline="central" x="10">PARSER</tspan></text><text dy="0em" x="10" y="1046" font-size="11" class="sectionTitle sectionTitle2"><tspan alignment-baseline="central" x="10">PARTITION</tspan></text><text dy="0em" x="10" y="1118" font-size="11" class="sectionTitle sectionTitle3"><tspan alignment-baseline="central" x="10">ORCHESTRATION</tspan></text></g><g class="today"><line x1="715" x2="715" y1="25" y2="1155" class="today"/></g><text x="392" y="25" class="titleText">Fleet repo lifespans by architectural layer (first commit to last)</text></svg>