<svg width="1120" height="892" viewBox="0 0 1120 892" xmlns="http://www.w3.org/2000/svg"
     style="width:100%;height:auto;font-family:'JetBrains Mono',ui-monospace,monospace;">
  <defs>
    <pattern id="grid" width="40" height="40" patternUnits="userSpaceOnUse">
      <path d="M 40 0 L 0 0 0 40" fill="none" stroke="#1e293b" stroke-width="0.5"/>
    </pattern>
    <marker id="arr" markerWidth="10" markerHeight="7" refX="9" refY="3.5" orient="auto">
      <polygon points="0 0,10 3.5,0 7" fill="#475569"/>
    </marker>
    <marker id="arr-orange" markerWidth="10" markerHeight="7" refX="9" refY="3.5" orient="auto">
      <polygon points="0 0,10 3.5,0 7" fill="#fb923c"/>
    </marker>
  </defs>

  <rect width="1120" height="892" fill="#020617"/>
  <rect width="1120" height="892" fill="url(#grid)"/>

  <!-- INGESTION LAYER — outer dashed boundary -->
  <rect x="12" y="118" width="1096" height="460" rx="8"
        fill="rgba(30,41,59,0.08)" stroke="#94a3b8" stroke-width="1" stroke-dasharray="6,3"/>
  <text x="20" y="114" fill="#94a3b8" font-size="9" font-weight="600" letter-spacing="0.5">INGESTION LAYER — the storage stack resolves any source to file bytes</text>

  <!-- ════ ARROWS (drawn first, behind boxes) ════ -->
  <!-- ORCH -> PARSER -->
  <line x1="122" y1="104" x2="122" y2="138" stroke="#475569" stroke-width="1.5" marker-end="url(#arr)"/>
  <line x1="340" y1="104" x2="340" y2="138" stroke="#475569" stroke-width="1.5" marker-end="url(#arr)"/>
  <line x1="558" y1="104" x2="558" y2="138" stroke="#475569" stroke-width="1.5" marker-end="url(#arr)"/>
  <line x1="776" y1="104" x2="776" y2="138" stroke="#475569" stroke-width="1.5" marker-end="url(#arr)"/>
  <line x1="994" y1="104" x2="994" y2="138" stroke="#475569" stroke-width="1.5" marker-end="url(#arr)"/>
  <!-- PARSER -> NAV -->
  <line x1="122" y1="192" x2="122" y2="214" stroke="#475569" stroke-width="1.5" marker-end="url(#arr)"/>
  <line x1="340" y1="192" x2="340" y2="214" stroke="#475569" stroke-width="1.5" marker-end="url(#arr)"/>
  <line x1="558" y1="192" x2="558" y2="214" stroke="#475569" stroke-width="1.5" marker-end="url(#arr)"/>
  <line x1="776" y1="192" x2="776" y2="214" stroke="#475569" stroke-width="1.5" marker-end="url(#arr)"/>
  <line x1="994" y1="192" x2="994" y2="214" stroke="#475569" stroke-width="1.5" marker-end="url(#arr)"/>
  <!-- [P] FILESYSTEM -> ENCRYPTION -> PARTITION -> CONTAINER -> ARCHIVE -> ACQUISITION -->
  <line x1="122" y1="274" x2="122" y2="296" stroke="#475569" stroke-width="1.5" marker-end="url(#arr)"/>
  <line x1="122" y1="342" x2="122" y2="352" stroke="#475569" stroke-width="1.5" marker-end="url(#arr)"/>
  <line x1="122" y1="398" x2="122" y2="408" stroke="#475569" stroke-width="1.5" marker-end="url(#arr)"/>
  <line x1="122" y1="462" x2="122" y2="472" stroke="#475569" stroke-width="1.5" marker-end="url(#arr)"/>
  <line x1="122" y1="518" x2="122" y2="528" stroke="#475569" stroke-width="1.2" stroke-dasharray="5,3" marker-end="url(#arr)"/>
  <line x1="122" y1="570" x2="122" y2="614" stroke="#475569" stroke-width="1.5" marker-end="url(#arr)"/>
  <!-- [M] PAGING -> (no fs) -> CONTAINER -> HISTORY -->
  <line x1="340" y1="274" x2="340" y2="296" stroke="#475569" stroke-width="1.2" stroke-dasharray="5,3" marker-end="url(#arr)"/>
  <line x1="340" y1="398" x2="340" y2="408" stroke="#475569" stroke-width="1.5" marker-end="url(#arr)"/>
  <line x1="340" y1="462" x2="340" y2="614" stroke="#475569" stroke-width="1.5" marker-end="url(#arr)"/>
  <!-- [L][Q][C] NAV -> no-container band -->
  <line x1="558" y1="274" x2="558" y2="296" stroke="#475569" stroke-width="1.5" marker-end="url(#arr)"/>
  <line x1="776" y1="274" x2="776" y2="296" stroke="#475569" stroke-width="1.5" marker-end="url(#arr)"/>
  <line x1="994" y1="274" x2="994" y2="296" stroke="#475569" stroke-width="1.5" marker-end="url(#arr)"/>
  <!-- [L][Q][C] band -> HISTORY -->
  <line x1="558" y1="344" x2="558" y2="614" stroke="#475569" stroke-width="1.2" stroke-dasharray="5,3" marker-end="url(#arr)"/>
  <line x1="776" y1="344" x2="776" y2="614" stroke="#475569" stroke-width="1.2" stroke-dasharray="5,3" marker-end="url(#arr)"/>
  <line x1="994" y1="344" x2="994" y2="614" stroke="#475569" stroke-width="1.2" stroke-dasharray="5,3" marker-end="url(#arr)"/>
  <!-- HISTORY -> KNOWLEDGE -->
  <line x1="560" y1="728" x2="560" y2="746" stroke="#fb923c" stroke-width="2" marker-end="url(#arr-orange)"/>

  <!-- ════ ORCHESTRATION ════ -->
  <rect x="12" y="12" width="1096" height="92" rx="8" fill="#0f172a"/>
  <rect x="12" y="12" width="1096" height="92" rx="8"
        fill="rgba(136,19,55,0.15)" stroke="#fb7185" stroke-width="1.5" stroke-dasharray="6,3"/>
  <text x="20" y="9" fill="#fb7185" font-size="9" font-weight="600" letter-spacing="0.5">ORCHESTRATION LAYER — orchestration/</text>

  <rect x="18" y="16" width="1090" height="40" rx="6" fill="#0f172a"/>
  <rect x="18" y="16" width="1090" height="40" rx="6"
        fill="rgba(136,19,55,0.3)" stroke="#fb7185" stroke-width="1.5"/>
  <text x="563" y="34" fill="white"   font-size="17" font-weight="700" text-anchor="middle">issen</text>
  <text x="563" y="49" fill="#fb7185" font-size="8.5" text-anchor="middle">issen-core · issen-correlation · forensic-pivot · issen-timeline · issen-cli · issen-{artifact} wrappers</text>

  <rect x="18" y="60" width="1090" height="40" rx="6" fill="#0f172a"/>
  <rect x="18" y="60" width="1090" height="40" rx="6"
        fill="rgba(6,78,59,0.4)" stroke="#34d399" stroke-width="1.5"/>
  <text x="563" y="77" fill="white"   font-size="11" font-weight="600" text-anchor="middle">forensic-vfs-engine 0.1.4 — one open-any-image entry (vfs/ wiring)</text>
  <text x="563" y="92" fill="#34d399" font-size="8.5" text-anchor="middle">Vfs::open(path) → Evidence · default_registry() wires the *Open readers · consumed by issen · 4n6mount · disk4n6</text>

  <!-- ════ COLUMN LABELS ════ -->
  <text x="122" y="131" fill="#fbbf24" font-size="10" font-weight="600" text-anchor="middle">[P] Persistent</text>
  <text x="340" y="131" fill="#fbbf24" font-size="10" font-weight="600" text-anchor="middle">[M] Memory</text>
  <text x="558" y="131" fill="#fbbf24" font-size="10" font-weight="600" text-anchor="middle">[L] Log</text>
  <text x="776" y="131" fill="#fbbf24" font-size="10" font-weight="600" text-anchor="middle">[Q] Live Query</text>
  <text x="994" y="131" fill="#fbbf24" font-size="10" font-weight="600" text-anchor="middle">[C] Content-Addr</text>

  <!-- ════ PARSER ROW  y140 h52 ════ -->
  <rect x="18"  y="140" width="208" height="52" rx="6" fill="#0f172a"/>
  <rect x="18"  y="140" width="208" height="52" rx="6" fill="rgba(76,29,149,0.4)" stroke="#a78bfa" stroke-width="1.5"/>
  <text x="122" y="157" fill="white"   font-size="11" font-weight="600" text-anchor="middle">PARSER</text>
  <text x="122" y="172" fill="#a78bfa" font-size="8"  text-anchor="middle">parser/ · browser · winreg · srum</text>
  <text x="122" y="184" fill="#64748b" font-size="7.5" text-anchor="middle">prefetch · lnk · sqlite · ese · segb …</text>

  <rect x="236" y="140" width="208" height="52" rx="6" fill="#0f172a"/>
  <rect x="236" y="140" width="208" height="52" rx="6" fill="rgba(76,29,149,0.4)" stroke="#a78bfa" stroke-width="1.5"/>
  <text x="340" y="157" fill="white"   font-size="11" font-weight="600" text-anchor="middle">OS STRUCTURE</text>
  <text x="340" y="172" fill="#a78bfa" font-size="8"  text-anchor="middle">memf-windows · memf-linux</text>
  <text x="340" y="184" fill="#64748b" font-size="7.5" text-anchor="middle">EPROCESS · VAD · DPAPI · DKOM</text>

  <rect x="454" y="140" width="208" height="52" rx="6" fill="#0f172a"/>
  <rect x="454" y="140" width="208" height="52" rx="6" fill="rgba(76,29,149,0.4)" stroke="#a78bfa" stroke-width="1.5"/>
  <text x="558" y="157" fill="white"   font-size="11" font-weight="600" text-anchor="middle">PARSER</text>
  <text x="558" y="172" fill="#a78bfa" font-size="8"  text-anchor="middle">winevt-forensic</text>
  <text x="558" y="184" fill="#64748b" font-size="7.5" text-anchor="middle">EventRecord → ATT&amp;CK</text>

  <rect x="672" y="140" width="208" height="52" rx="6" fill="#0f172a"/>
  <rect x="672" y="140" width="208" height="52" rx="6" fill="rgba(76,29,149,0.4)" stroke="#a78bfa" stroke-width="1.5"/>
  <text x="776" y="157" fill="white"   font-size="11" font-weight="600" text-anchor="middle">PARSER</text>
  <text x="776" y="172" fill="#a78bfa" font-size="8"  text-anchor="middle">velociraptor-parser</text>
  <text x="776" y="184" fill="#64748b" font-size="7.5" text-anchor="middle">result rows → events</text>

  <rect x="890" y="140" width="208" height="52" rx="6" fill="#0f172a"/>
  <rect x="890" y="140" width="208" height="52" rx="6" fill="rgba(76,29,149,0.4)" stroke="#a78bfa" stroke-width="1.5"/>
  <text x="994" y="157" fill="white"   font-size="11" font-weight="600" text-anchor="middle">PARSER</text>
  <text x="994" y="172" fill="#a78bfa" font-size="8"  text-anchor="middle">git-forensic · sigstore</text>
  <text x="994" y="184" fill="#64748b" font-size="7.5" text-anchor="middle">CAS events → timeline</text>

  <!-- ════ NAVIGATION ROW  y216 h58 ════ -->
  <rect x="18"  y="216" width="208" height="58" rx="6" fill="#0f172a"/>
  <rect x="18"  y="216" width="208" height="58" rx="6" fill="rgba(6,78,59,0.4)" stroke="#34d399" stroke-width="1.5"/>
  <text x="122" y="233" fill="white"   font-size="11" font-weight="600" text-anchor="middle">FILESYSTEM</text>
  <text x="122" y="247" fill="#34d399" font-size="8"  text-anchor="middle">filesystem/ · FileSystemOpen</text>
  <text x="122" y="258" fill="#94a3b8" font-size="7.5" text-anchor="middle">ntfs · ext4fs · apfs · hfs+ · fat · xfs</text>
  <text x="122" y="269" fill="#64748b" font-size="7.5" text-anchor="middle">name → inode → block</text>

  <rect x="236" y="216" width="208" height="58" rx="6" fill="#0f172a"/>
  <rect x="236" y="216" width="208" height="58" rx="6" fill="rgba(6,78,59,0.4)" stroke="#34d399" stroke-width="1.5"/>
  <text x="340" y="235" fill="white"   font-size="11" font-weight="600" text-anchor="middle">PAGING</text>
  <text x="340" y="251" fill="#34d399" font-size="8"  text-anchor="middle">memory/ · memf-hw</text>
  <text x="340" y="265" fill="#64748b" font-size="7.5" text-anchor="middle">PID → EPROCESS → VA → PA</text>

  <rect x="454" y="216" width="208" height="58" rx="6" fill="#0f172a"/>
  <rect x="454" y="216" width="208" height="58" rx="6" fill="rgba(251,146,60,0.3)" stroke="#fb923c" stroke-width="1.5"/>
  <text x="558" y="235" fill="white"   font-size="11" font-weight="600" text-anchor="middle">LOG FORMAT</text>
  <text x="558" y="251" fill="#fb923c" font-size="8"  text-anchor="middle">log/ · winevt · journald</text>
  <text x="558" y="265" fill="#64748b" font-size="7.5" text-anchor="middle">timestamp → record → field</text>

  <rect x="672" y="216" width="208" height="58" rx="6" fill="#0f172a"/>
  <rect x="672" y="216" width="208" height="58" rx="6" fill="rgba(8,51,68,0.4)" stroke="#22d3ee" stroke-width="1.5"/>
  <text x="776" y="235" fill="white"   font-size="11" font-weight="600" text-anchor="middle">QUERY ENGINE</text>
  <text x="776" y="251" fill="#22d3ee" font-size="8"  text-anchor="middle">issen-remote-access</text>
  <text x="776" y="265" fill="#64748b" font-size="7.5" text-anchor="middle">(endpoint, query) → rows</text>

  <rect x="890" y="216" width="208" height="58" rx="6" fill="#0f172a"/>
  <rect x="890" y="216" width="208" height="58" rx="6" fill="rgba(8,51,68,0.4)" stroke="#22d3ee" stroke-width="1.5"/>
  <text x="994" y="235" fill="white"   font-size="11" font-weight="600" text-anchor="middle">GRAPH NAV</text>
  <text x="994" y="251" fill="#22d3ee" font-size="8"  text-anchor="middle">graph/ · git-forensic · cas</text>
  <text x="994" y="265" fill="#64748b" font-size="7.5" text-anchor="middle">hash → blob → content graph</text>

  <!-- ════ [P] ENCRYPTION  y298 h44 ════ -->
  <rect x="18" y="298" width="208" height="44" rx="6" fill="#0f172a"/>
  <rect x="18" y="298" width="208" height="44" rx="6" fill="rgba(136,19,55,0.4)" stroke="#fb7185" stroke-width="1.5"/>
  <text x="122" y="314" fill="white"   font-size="11" font-weight="600" text-anchor="middle">ENCRYPTION</text>
  <text x="122" y="327" fill="#fb7185" font-size="8"  text-anchor="middle">encryption/ · EncryptionOpen</text>
  <text x="122" y="338" fill="#94a3b8" font-size="7.5" text-anchor="middle">BitLocker · LUKS · FileVault · VeraCrypt</text>

  <!-- ════ [P] PARTITION  y354 h44 ════ -->
  <rect x="18" y="354" width="208" height="44" rx="6" fill="#0f172a"/>
  <rect x="18" y="354" width="208" height="44" rx="6" fill="rgba(30,41,59,0.5)" stroke="#94a3b8" stroke-width="1.5"/>
  <text x="122" y="370" fill="white"   font-size="11" font-weight="600" text-anchor="middle">PARTITION</text>
  <text x="122" y="383" fill="#cbd5e1" font-size="8"  text-anchor="middle">partition/ · VolumeSystemOpen</text>
  <text x="122" y="394" fill="#94a3b8" font-size="7.5" text-anchor="middle">MBR · GPT · APM</text>

  <!-- ════ [P] CONTAINER  y410 h52 ════ -->
  <rect x="18" y="410" width="208" height="52" rx="6" fill="#0f172a"/>
  <rect x="18" y="410" width="208" height="52" rx="6" fill="rgba(30,41,59,0.5)" stroke="#94a3b8" stroke-width="1.5"/>
  <text x="122" y="426" fill="white"   font-size="11" font-weight="600" text-anchor="middle">CONTAINER</text>
  <text x="122" y="439" fill="#cbd5e1" font-size="8"  text-anchor="middle">container/ · ContainerOpen → ImageSource</text>
  <text x="122" y="450" fill="#94a3b8" font-size="7.5" text-anchor="middle">ewf · vmdk · qcow2 · vhdx · vhd</text>
  <text x="122" y="459" fill="#94a3b8" font-size="7.5" text-anchor="middle">dmg · aff4 · ufed · dd</text>

  <!-- ════ [P] ARCHIVE  y474 h44 ════ -->
  <rect x="18" y="474" width="208" height="44" rx="6" fill="#0f172a"/>
  <rect x="18" y="474" width="208" height="44" rx="6" fill="rgba(251,146,60,0.14)" stroke="#fb923c" stroke-width="1.5"/>
  <text x="122" y="490" fill="white"   font-size="11" font-weight="600" text-anchor="middle">ARCHIVE</text>
  <text x="122" y="503" fill="#fb923c" font-size="8"  text-anchor="middle">archive/ · ArchiveOpen</text>
  <text x="122" y="514" fill="#94a3b8" font-size="7.5" text-anchor="middle">zip · dar · ad1 · .gz/.7z/.tar peel</text>

  <!-- ════ [P] ACQUISITION  y530 h40 (live-host edge, outside the vfs halo) ════ -->
  <rect x="18" y="530" width="208" height="40" rx="6" fill="#0f172a"/>
  <rect x="18" y="530" width="208" height="40" rx="6" fill="rgba(8,51,68,0.4)" stroke="#22d3ee" stroke-width="1.5" stroke-dasharray="5,3"/>
  <text x="122" y="545" fill="white"   font-size="10" font-weight="600" text-anchor="middle">ACQUISITION</text>
  <text x="122" y="557" fill="#22d3ee" font-size="8"  text-anchor="middle">acquisition/ · livedisk-forensic</text>
  <text x="122" y="566" fill="#64748b" font-size="7.5" text-anchor="middle">live-host physical disks → raw source</text>

  <!-- ════ [M] no-fs pass-through  y298 h100 ════ -->
  <rect x="236" y="298" width="208" height="100" rx="6"
        fill="rgba(30,41,59,0.08)" stroke="#334155" stroke-width="1" stroke-dasharray="5,3"/>
  <text x="340" y="340" fill="#475569" font-size="9" font-style="italic" text-anchor="middle">no archive / partition</text>
  <text x="340" y="356" fill="#475569" font-size="9" font-style="italic" text-anchor="middle">/ encryption / fs</text>
  <text x="340" y="374" fill="#334155" font-size="7.5" text-anchor="middle">memory pages map directly to PA</text>

  <!-- ════ [M] CONTAINER  y410 h52 ════ -->
  <rect x="236" y="410" width="208" height="52" rx="6" fill="#0f172a"/>
  <rect x="236" y="410" width="208" height="52" rx="6" fill="rgba(30,41,59,0.5)" stroke="#94a3b8" stroke-width="1.5"/>
  <text x="340" y="432" fill="white"   font-size="11" font-weight="600" text-anchor="middle">CONTAINER</text>
  <text x="340" y="448" fill="#cbd5e1" font-size="8"  text-anchor="middle">container/ · memf-format</text>
  <text x="340" y="459" fill="#94a3b8" font-size="7.5" text-anchor="middle">WinPMEM · raw · hiberfil · ELF core</text>

  <!-- ════ [L][Q][C] no outer container band  y298 h46 ════ -->
  <rect x="454" y="298" width="644" height="46" rx="6"
        fill="rgba(30,41,59,0.08)" stroke="#334155" stroke-width="1" stroke-dasharray="5,3"/>
  <text x="776" y="319" fill="#475569" font-size="10" font-style="italic" text-anchor="middle">no outer container</text>
  <text x="776" y="335" fill="#334155" font-size="7.5" text-anchor="middle">[L] log stream · [Q] live query · [C] hash store — the stream / endpoint / hash IS the entry point</text>

  <!-- ════ forensic-vfs halo (wraps [P] FILESYSTEM→ARCHIVE = the 5 *Open layers) ════ -->
  <rect x="14" y="210" width="218" height="312" rx="8"
        fill="none" stroke="#34d399" stroke-width="1.5" stroke-dasharray="8,4"/>
  <text x="29" y="366" fill="#34d399" font-size="8.5" font-weight="600" letter-spacing="0.5"
        text-anchor="middle" transform="rotate(-90 29 366)">forensic-vfs 0.4 · 5 *Open layers → one ImageSource · read-only</text>

  <!-- ════ HISTORY LAYER  y616 h112 ════ -->
  <rect x="12" y="616" width="1096" height="112" rx="8" fill="#0f172a"/>
  <rect x="12" y="616" width="1096" height="112" rx="8"
        fill="rgba(251,146,60,0.1)" stroke="#fb923c" stroke-width="1.5" stroke-dasharray="6,3"/>
  <text x="20" y="613" fill="#fb923c" font-size="9" font-weight="600" letter-spacing="0.5">HISTORY LAYER — history/ · [H] cross-cutting functor</text>

  <rect x="18" y="626" width="1090" height="90" rx="6" fill="#0f172a"/>
  <rect x="18" y="626" width="1090" height="90" rx="6"
        fill="rgba(120,53,15,0.25)" stroke="#fbbf24" stroke-width="1.5"/>
  <text x="563" y="644" fill="white"   font-size="11" font-weight="600" text-anchor="middle">state-history-forensic · vsc-forensic · snapshot-forensic</text>
  <text x="563" y="660" fill="#fbbf24" font-size="8.5" text-anchor="middle">HistoricalSource · TemporalCohort&lt;H&gt; · ClockProvenance · ArtifactRef · EpochTag · MaterializationSafety</text>
  <text x="563" y="676" fill="#94a3b8" font-size="9"  text-anchor="middle">[P^H]  ·  [M^H]  ·  [L^H]  ·  [Q^H]  ·  [C^H] ≅ [C]</text>
  <text x="563" y="691" fill="#64748b" font-size="7.5" text-anchor="middle">a time-indexed lift of each primitive (VSS · APFS snapshots · Time Machine · hiberfil chain)</text>

  <!-- ════ FOUNDATION LAYER (KNOWLEDGE · UTILITY · COMPRESSION · VFS CONTRACT)  y748 h74 ════ -->
  <rect x="12" y="748" width="1096" height="74" rx="8" fill="#0f172a"/>
  <rect x="12" y="748" width="1096" height="74" rx="8"
        fill="rgba(120,53,15,0.14)" stroke="#fbbf24" stroke-width="1" stroke-dasharray="6,3"/>
  <text x="20" y="744" fill="#fbbf24" font-size="9" font-weight="600" letter-spacing="0.5">FOUNDATION — zero-dep leaves; everything above depends DOWN onto these</text>

  <rect x="18"  y="756" width="265" height="58" rx="6" fill="#0f172a"/>
  <rect x="18"  y="756" width="265" height="58" rx="6" fill="rgba(120,53,15,0.3)" stroke="#fbbf24" stroke-width="1.5"/>
  <text x="150" y="774" fill="white"   font-size="10" font-weight="600" text-anchor="middle">knowledge/</text>
  <text x="150" y="789" fill="#fbbf24" font-size="8"  text-anchor="middle">forensicnomicon · forensic-hashdb</text>
  <text x="150" y="801" fill="#94a3b8" font-size="7.5" text-anchor="middle">format specs · report model · IOC hashes</text>
  <text x="150" y="810" fill="#64748b" font-size="7" text-anchor="middle">zero-dep, zero-I/O</text>

  <rect x="295" y="756" width="265" height="58" rx="6" fill="#0f172a"/>
  <rect x="295" y="756" width="265" height="58" rx="6" fill="rgba(30,41,59,0.5)" stroke="#94a3b8" stroke-width="1.5"/>
  <text x="427" y="774" fill="white"   font-size="10" font-weight="600" text-anchor="middle">utility/</text>
  <text x="427" y="789" fill="#cbd5e1" font-size="8"  text-anchor="middle">safe-read · blazehash</text>
  <text x="427" y="801" fill="#cbd5e1" font-size="8"  text-anchor="middle">jsonguard · timeglyph</text>
  <text x="427" y="810" fill="#64748b" font-size="7" text-anchor="middle">safe reads · hashing · output guard · time</text>

  <rect x="572" y="756" width="265" height="58" rx="6" fill="#0f172a"/>
  <rect x="572" y="756" width="265" height="58" rx="6" fill="rgba(251,146,60,0.14)" stroke="#fb923c" stroke-width="1.5"/>
  <text x="704" y="774" fill="white"   font-size="10" font-weight="600" text-anchor="middle">compression/</text>
  <text x="704" y="789" fill="#fb923c" font-size="8"  text-anchor="middle">xpress-huffman · lzo · lzvn</text>
  <text x="704" y="803" fill="#94a3b8" font-size="7.5" text-anchor="middle">pure byte-stream codecs</text>

  <rect x="849" y="756" width="259" height="58" rx="6" fill="#0f172a"/>
  <rect x="849" y="756" width="259" height="58" rx="6" fill="rgba(6,78,59,0.4)" stroke="#34d399" stroke-width="1.5"/>
  <text x="978" y="774" fill="white"   font-size="10" font-weight="600" text-anchor="middle">vfs/ contract leaf</text>
  <text x="978" y="789" fill="#34d399" font-size="8"  text-anchor="middle">forensic-vfs 0.4 · ImageSource</text>
  <text x="978" y="801" fill="#94a3b8" font-size="7.5" text-anchor="middle">5 *Open traits · *Probe · PathSpec</text>
  <text x="978" y="810" fill="#64748b" font-size="7" text-anchor="middle">+ engine · mount · disk-forensic · 4n6mount</text>

  <!-- ════ LEGEND ════ -->
  <line x1="12" y1="838" x2="1108" y2="838" stroke="#1e293b" stroke-width="1"/>

  <rect x="12"  y="848" width="11" height="11" rx="2" fill="rgba(136,19,55,0.4)"  stroke="#fb7185"  stroke-width="1"/>
  <text x="29"  y="857" fill="#64748b" font-size="9">Orchestration / Encryption (FDE)</text>

  <rect x="240" y="848" width="11" height="11" rx="2" fill="rgba(76,29,149,0.4)"  stroke="#a78bfa"  stroke-width="1"/>
  <text x="257" y="857" fill="#64748b" font-size="9">Parser / OS Structure</text>

  <rect x="430" y="848" width="11" height="11" rx="2" fill="rgba(6,78,59,0.4)"    stroke="#34d399"  stroke-width="1"/>
  <text x="447" y="857" fill="#64748b" font-size="9">Filesystem / VFS / Paging</text>

  <rect x="640" y="848" width="11" height="11" rx="2" fill="rgba(30,41,59,0.5)"   stroke="#94a3b8"  stroke-width="1"/>
  <text x="657" y="857" fill="#64748b" font-size="9">Partition / Container / Utility</text>

  <rect x="12"  y="868" width="11" height="11" rx="2" fill="rgba(251,146,60,0.3)" stroke="#fb923c"  stroke-width="1"/>
  <text x="29"  y="877" fill="#64748b" font-size="9">Log / Archive / History / Compression</text>

  <rect x="290" y="868" width="11" height="11" rx="2" fill="rgba(8,51,68,0.4)"    stroke="#22d3ee"  stroke-width="1"/>
  <text x="307" y="877" fill="#64748b" font-size="9">Query / Graph / Acquisition (live)</text>

  <rect x="560" y="868" width="11" height="11" rx="2" fill="rgba(120,53,15,0.3)"  stroke="#fbbf24"  stroke-width="1"/>
  <text x="577" y="877" fill="#64748b" font-size="9">Knowledge (zero-dep)</text>

  <text x="770" y="877" fill="#334155" font-size="8.5">— → depends down / resolves to · - - → no layer present</text>

</svg>